<svg width="62" height="62" viewBox="0 0 62 62" fill="none" xmlns="http://www.w3.org/2000/svg">
<path d="M19.7625 32.5492L31 43.7867L42.2375 32.5492C48.4375 26.3492 48.4375 16.2742 42.2375 9.88047C36.0375 3.68047 25.9625 3.68047 19.5687 9.88047C13.175 16.0805 13.5625 26.1555 19.7625 32.5492Z" stroke="currentColor" stroke-width="2" stroke-miterlimit="10" stroke-linecap="round" stroke-linejoin="round"/>
<path d="M30.9999 29.0613C35.3871 29.0613 38.9437 25.5048 38.9437 21.1176C38.9437 16.7304 35.3871 13.1738 30.9999 13.1738C26.6127 13.1738 23.0562 16.7304 23.0562 21.1176C23.0562 25.5048 26.6127 29.0613 30.9999 29.0613Z" stroke="currentColor" stroke-width="2" stroke-miterlimit="10" stroke-linecap="round" stroke-linejoin="round"/>
<path d="M43.0125 40.6875H47.0812L59.0938 56.7687H2.90625L14.9187 40.6875H18.9875" stroke="currentColor" stroke-width="2" stroke-miterlimit="10" stroke-linecap="round" stroke-linejoin="round"/>
</svg>
