<svg width="32" height="32" viewBox="0 0 32 32" fill="none" xmlns="http://www.w3.org/2000/svg">
<path d="M18.7003 10.5V6.5H21.8003C22.6003 6.5 23.2003 5.9 23.2003 5.1V3.4C23.2003 2.6 22.6003 2 21.8003 2H10.2003C9.40027 2 8.80027 2.6 8.80027 3.4V5.1C8.80027 5.9 9.40027 6.5 10.2003 6.5H13.3003V10.5C8.80027 11.8 5.60027 16.1 6.10027 21.1C6.60027 25.7 10.3003 29.4 14.8003 29.9C20.8003 30.6 25.9003 25.9 25.9003 20C25.9003 15.5 22.9003 11.7 18.7003 10.5Z" stroke="currentColor" stroke-miterlimit="10" stroke-linecap="round" stroke-linejoin="round"/>
<path d="M16.0002 26.3996C12.5002 26.3996 9.7002 23.5996 9.7002 20.0996H22.3002" stroke="currentColor" stroke-miterlimit="10" stroke-linecap="round" stroke-linejoin="round"/>
</svg>
