<svg width="226" height="225" viewBox="0 0 226 225" fill="none" xmlns="http://www.w3.org/2000/svg">
<path d="M78.2586 70.0025L112.669 35.5918L147.08 70.0025C165.964 88.8864 165.964 119.94 147.08 138.824C128.196 157.708 97.1425 157.708 78.2586 138.824C59.3747 119.94 59.3747 88.8864 78.2586 70.0025Z" fill="#0089FF" fill-opacity="0.2" stroke="#0089FF" stroke-opacity="0.2"/>
<path d="M112.669 134.314C130.202 134.314 144.416 120.1 144.416 102.567C144.416 85.0344 130.202 70.821 112.669 70.821C95.1362 70.821 80.9229 85.0344 80.9229 102.567C80.9229 120.1 95.1362 134.314 112.669 134.314Z" fill="#12151E" stroke="#0089FF" stroke-opacity="0.2" stroke-miterlimit="10" stroke-linecap="round" stroke-linejoin="round"/>
<path d="M109.984 113.924H94.3555" stroke="white" stroke-miterlimit="10" stroke-linecap="round" stroke-linejoin="round"/>
<path d="M115.601 119.052C118.703 119.052 121.218 116.537 121.218 113.435C121.218 110.333 118.703 107.819 115.601 107.819C112.499 107.819 109.984 110.333 109.984 113.435C109.984 116.537 112.499 119.052 115.601 119.052Z" stroke="white" stroke-miterlimit="10" stroke-linecap="round" stroke-linejoin="round"/>
<path d="M124.637 91.335H113.647L116.089 97.9284H128.3" stroke="white" stroke-miterlimit="10" stroke-linecap="round" stroke-linejoin="round"/>
<path d="M121.584 113.435H130.742V100.126L128.178 97.9284C126.712 92.3118 122.805 87.5498 117.555 84.8636H117.433H99.4837V103.789H94.3555" stroke="white" stroke-miterlimit="10" stroke-linecap="round" stroke-linejoin="round"/>
<path d="M94.3555 120.273H130.742" stroke="white" stroke-miterlimit="10" stroke-linecap="round" stroke-linejoin="round"/>
</svg>
