<svg width="62" height="62" viewBox="0 0 62 62" fill="none" xmlns="http://www.w3.org/2000/svg">
<path d="M49.2127 29.8375V11.2375C49.2127 9.6875 48.0502 8.525 46.5002 8.525H37.5877H37.3939V4.65C37.3939 4.2625 37.0064 3.875 36.6189 3.875H21.5064C21.1189 3.875 20.7314 4.2625 20.7314 4.65V12.5938C20.7314 12.9813 21.1189 13.3688 21.5064 13.3688H32.3564" stroke="white" stroke-width="2" stroke-miterlimit="10" stroke-linecap="round" stroke-linejoin="round"/>
<path d="M13.3689 8.52502H11.8189C10.2689 8.52502 9.10645 9.68752 9.10645 11.2375V55.4125C9.10645 56.9625 10.2689 58.125 11.8189 58.125H31.9689" stroke="white" stroke-width="2" stroke-miterlimit="10" stroke-linecap="round" stroke-linejoin="round"/>
<path d="M43.207 37.3938L52.8945 47.275L43.207 56.9625" stroke="white" stroke-width="2" stroke-miterlimit="10" stroke-linecap="round" stroke-linejoin="round"/>
<path d="M33.1318 47.275H52.8943" stroke="white" stroke-width="2" stroke-miterlimit="10" stroke-linecap="round" stroke-linejoin="round"/>
</svg>
