<svg width="100%" height="100%" viewBox="0 0 488 488" fill="none" xmlns="http://www.w3.org/2000/svg">
<circle opacity="0.25" cx="244" cy="244" r="244" fill="#00A73D" fill-opacity="0.2"/>
<circle opacity="0.5" cx="244" cy="243.999" r="210.271" fill="#00A73D" fill-opacity="0.2"/>
<circle cx="244" cy="244" r="178.694" fill="#1C1F2B" stroke="#00A73D" stroke-width="7.17647"/>
<path d="M205.062 245.918L229.441 270.777C230.795 272.158 233.504 272.158 234.858 270.777L282.937 221.75" stroke="#00A73D" stroke-width="6.05442" stroke-miterlimit="10" stroke-linecap="round" stroke-linejoin="round"/>
<path d="M243.999 317.424C284.55 317.424 317.424 284.551 317.424 243.999C317.424 203.448 284.55 170.574 243.999 170.574C203.447 170.574 170.574 203.448 170.574 243.999C170.574 284.551 203.447 317.424 243.999 317.424Z" stroke="#00A73D" stroke-width="6.05442" stroke-miterlimit="10" stroke-linecap="round" stroke-linejoin="round"/>
<path d="M244.359 62.4355C270.62 62.4355 296.57 68.121 320.425 79.1012C344.28 90.0814 365.475 106.096 382.554 126.045C399.633 145.993 412.191 169.403 419.364 194.665C426.537 219.928 428.156 246.443 424.11 272.391L418.388 271.498C422.306 246.377 420.738 220.705 413.793 196.247C406.848 171.789 394.69 149.125 378.155 129.811C361.62 110.497 341.099 94.9923 318.004 84.3616C294.908 73.7309 269.784 68.2265 244.359 68.2265V62.4355Z" fill="#00A73D"/>
</svg>
