<svg width="149" height="149" viewBox="0 0 149 149" fill="none" xmlns="http://www.w3.org/2000/svg">
<path d="M74.5 -3.2565e-06C115.645 -5.05501e-06 149 33.3548 149 74.5C149 115.645 115.645 149 74.5 149C33.3548 149 -1.45798e-06 115.645 -3.2565e-06 74.5C-5.05501e-06 33.3548 33.3548 -1.45798e-06 74.5 -3.2565e-06ZM74.5 146.02C113.999 146.02 146.02 113.999 146.02 74.5C146.02 35.0006 113.999 2.98001 74.5 2.98001C35.0006 2.98001 2.98 35.0006 2.98 74.5C2.98 113.999 35.0006 146.02 74.5 146.02Z" fill="currentColor"/>
<path d="M68.5999 110.4H51.5C44.6 110.4 39.2 104.7 39.2 98.1V70.2L50 39H70.4L77 50.4L97.7 44.4C102.2 43.2 106.4 46.5 106.4 51V66.3" stroke="currentColor" stroke-width="3" stroke-miterlimit="10" stroke-linecap="round" stroke-linejoin="round"/>
<path d="M87.1999 62.0994L85.3999 57.8994L96.1999 53.9994C97.3999 53.3994 98.5999 54.5994 98.5999 55.7994V61.4994" stroke="currentColor" stroke-width="3" stroke-miterlimit="10" stroke-linecap="round" stroke-linejoin="round"/>
<path d="M50 29.6992H70.7" stroke="currentColor" stroke-width="3" stroke-miterlimit="10" stroke-linecap="round" stroke-linejoin="round"/>
<path d="M41.6 98.0996H68.6" stroke="currentColor" stroke-width="3" stroke-miterlimit="10" stroke-linecap="round" stroke-linejoin="round"/>
<path d="M41.6 70.1992H68.6" stroke="currentColor" stroke-width="3" stroke-miterlimit="10" stroke-linecap="round" stroke-linejoin="round"/>
<path d="M98 122.25C87.4125 122.25 78.75 113.588 78.75 103C78.75 92.4125 87.4125 83.75 98 83.75C108.588 83.75 117.25 92.4125 117.25 103C117.25 113.588 108.588 122.25 98 122.25Z" stroke="currentColor" stroke-width="3" stroke-miterlimit="10" stroke-linecap="round" stroke-linejoin="round"/>
<path d="M89.75 102.726L94.425 107.401C94.8375 107.813 95.525 107.813 96.075 107.401L105.425 98.0508" stroke="currentColor" stroke-width="3" stroke-miterlimit="10" stroke-linecap="round" stroke-linejoin="round"/>
</svg>
