<svg width="177" height="86" viewBox="0 0 177 86" fill="none" xmlns="http://www.w3.org/2000/svg">
<path d="M144.832 51.6454C144.672 51.652 144.513 51.6268 144.363 51.5714C144.213 51.516 144.076 51.4314 143.958 51.3225C143.841 51.2136 143.746 51.0825 143.679 50.9367C143.612 50.7909 143.575 50.6332 143.568 50.4728V30.4397C143.644 30.1742 143.803 29.9407 144.022 29.7745C144.242 29.6082 144.509 29.5183 144.783 29.5183C145.058 29.5183 145.325 29.6082 145.544 29.7745C145.763 29.9407 145.923 30.1742 145.998 30.4397V50.5461C145.986 50.8658 145.849 51.1677 145.617 51.387C145.385 51.6063 145.077 51.7254 144.759 51.7187L144.832 51.6454ZM147.189 25.7246H142.475C138.49 25.7246 138.271 28.9494 138.271 31.026V50.0819C138.271 52.1585 138.49 55.3833 142.475 55.3833H147.165C151.125 55.3833 151.368 52.1585 151.368 50.0819V31.026C151.368 28.9494 151.125 25.7246 147.165 25.7246" fill="currentColor"/>
<path d="M58.793 25.7246H69.6056V29.4136H64.4544V55.3833H58.793V25.7246Z" fill="currentColor"/>
<path d="M70.4316 55.3833H75.9716L76.5061 47.4922H79.2032L79.7135 55.3833H85.3992L82.3134 25.7246H73.396L70.4316 55.3833ZM76.7248 44.3163L77.6967 29.4625H78.1098L79.0817 44.3163H76.7248Z" fill="currentColor"/>
<path d="M93.3947 45.0003V50.5949C93.3848 50.7176 93.3998 50.8411 93.439 50.9577C93.4782 51.0743 93.5406 51.1817 93.6225 51.2732C93.7044 51.3647 93.804 51.4384 93.9153 51.4898C94.0265 51.5412 94.147 51.5692 94.2694 51.5721C94.5165 51.5595 94.7488 51.4502 94.9168 51.2676C95.0848 51.085 95.1751 50.8436 95.1685 50.5949V43.6811C95.1685 42.7527 94.9984 41.7511 92.8845 41.7511H90.6004V38.4774H93.0302C94.6339 38.4774 95.2171 38.0865 95.2171 36.2786V30.3664C95.2203 30.2445 95.1996 30.1231 95.1562 30.0092C95.1127 29.8954 95.0474 29.7912 94.9639 29.7027C94.8804 29.6142 94.7804 29.5432 94.6696 29.4936C94.5588 29.444 94.4393 29.4168 94.318 29.4136C94.1968 29.4132 94.0767 29.4381 93.9656 29.4868C93.8544 29.5356 93.7545 29.607 93.6722 29.6966C93.59 29.7862 93.5272 29.892 93.4877 30.0073C93.4483 30.1226 93.4332 30.2449 93.4433 30.3664V35.2525H87.8305V31.026C87.8305 28.9494 88.0735 25.7246 92.034 25.7246H96.7478C100.708 25.7246 100.951 28.9494 100.951 31.026V35.7656C101.023 36.2971 100.975 36.838 100.81 37.348C100.645 37.8581 100.367 38.3242 99.9983 38.7115C99.6293 39.0989 99.1782 39.3977 98.6786 39.5855C98.1789 39.7734 97.6435 39.8456 97.1123 39.7966V40.0898C97.6479 40.0207 98.1921 40.079 98.7011 40.2599C99.2102 40.4408 99.67 40.7393 100.043 41.1314C100.417 41.5235 100.694 41.9982 100.851 42.5175C101.009 43.0367 101.043 43.5858 100.951 44.1208V50.0819C100.951 52.1585 100.708 55.3833 96.7478 55.3833H91.9125C87.952 55.3833 87.709 52.1585 87.709 50.0819V45.0003H93.3947Z" fill="currentColor"/>
<path d="M104.57 25.7246H117.691V55.3833H112.394V29.4136H109.843V55.3833H104.57V25.7246Z" fill="currentColor"/>
<path d="M121.847 55.3833H127.508V45.2935H130.74C134.725 45.2935 135.356 42.0931 135.356 39.9921V31.026C135.356 28.9494 134.725 25.7246 130.74 25.7246H121.847V55.3833ZM127.508 42.0442V29.4136H128.99C129.622 29.4136 130.059 29.9511 130.059 30.8795V40.6517C130.059 41.58 129.622 42.1419 128.99 42.1419L127.508 42.0442Z" fill="currentColor"/>
<path d="M169.472 25.7246H176.858V55.3833H171.172V36.7917H170.978L168.062 55.3833H163.519L160.603 36.7917H160.408V55.3833H154.723V25.7246H162.085L165.778 46.5639L169.472 25.7246Z" fill="currentColor"/>
<path d="M46.6928 28.7303C46.6552 31.4475 46.3623 34.1551 45.8181 36.8169C45.9284 32.9647 45.6024 29.1125 44.8462 25.3345C43.8668 21.0232 42.3312 16.8592 40.2782 12.9482C38.2444 16.8516 36.7329 21.0082 35.783 25.3101C35.0392 29.1566 34.6891 33.0696 34.7382 36.9879C34.1198 33.2759 33.8675 29.5116 33.985 25.7498C34.1841 22.2994 34.7296 18.878 35.6129 15.5378C36.7447 11.6124 38.3095 7.82662 40.2782 4.25092C42.2864 7.72727 43.8692 11.4351 44.992 15.2935C46.1766 19.6713 46.7491 24.1937 46.6928 28.7303ZM40.3025 51.7684C38.7513 48.7439 37.9196 45.3987 37.8727 41.9961C37.8786 38.6272 38.7133 35.312 40.3025 32.3461C41.7335 35.2178 42.5215 38.37 42.6108 41.5808C42.6727 45.1211 41.8365 48.6188 40.181 51.7439L40.3025 51.7684ZM47.0816 15.3424C45.6818 9.86529 43.3469 4.67409 40.181 0C37.4515 4.15282 35.309 8.66676 33.8149 13.4124C31.9925 19.6798 31.447 26.2526 32.2112 32.7369C32.7978 36.9822 33.891 41.141 35.4672 45.1232C36.7547 48.1595 38.3853 51.0368 40.3268 53.6984C44.4703 47.7077 47.1508 40.8193 48.1507 33.592C49.0772 27.5063 48.7463 21.2939 47.1788 15.3424" fill="currentColor"/>
<path d="M29.3204 55.3832V64.7157C30.8782 63.1537 32.9884 62.2765 35.1884 62.2765C37.3884 62.2765 39.4986 63.1537 41.0564 64.7157C41.83 65.4838 42.4442 66.3986 42.8634 67.4072C43.2826 68.4159 43.4985 69.4981 43.4985 70.5912C43.4985 71.6844 43.2826 72.7666 42.8634 73.7752C42.4442 74.7838 41.83 75.6987 41.0564 76.4668C37.9419 79.5833 33.7266 81.3329 29.3326 81.3329C24.9386 81.3329 20.7233 79.5833 17.6088 76.4668C14.8913 73.7501 13.2007 70.1658 12.8282 66.3309C12.4556 62.4961 13.4244 58.6506 15.5678 55.4565C16.1603 54.5718 16.8444 53.7529 17.6088 53.0134C19.1477 51.4608 20.9769 50.2297 22.9911 49.3911C25.0053 48.5526 27.1647 48.123 29.3447 48.1273V25.8711C24.4687 25.8844 19.6724 27.1159 15.387 29.4549C11.1017 31.7938 7.46153 35.1668 4.79394 39.2708C2.12634 43.3747 0.514879 48.0808 0.104437 52.966C-0.306005 57.8513 0.497434 62.7625 2.44252 67.2582C4.38761 71.7539 7.41338 75.6931 11.2478 78.7217C15.0822 81.7503 19.6051 83.7733 24.4098 84.6089C29.2145 85.4445 34.1504 85.0665 38.7738 83.5088C43.3972 81.9511 47.5631 79.2626 50.8971 75.685V55.3832H29.3204Z" fill="currentColor"/>
<path d="M171.56 78.0311C171.56 80.8406 170.272 81.3536 167.016 81.3536H164.028V68.4787H167.016V73.3649H167.526C170.467 73.3649 171.56 74.0733 171.56 76.6385V78.0311ZM146.582 70.8974H144.322V81.3536H141.455V70.8974H139.025V68.4543H146.582V70.8974ZM123.547 76.7607C123.547 79.3748 122.235 80.0833 119.271 80.0833V81.3536H116.379V80.0833C113.415 80.0833 112.078 79.3748 112.078 76.7607V72.7297C112.078 70.1156 113.366 69.4315 116.379 69.4315V68.4787H119.271V69.4315C122.284 69.4315 123.547 70.1156 123.547 72.7297V76.7607ZM96.4306 70.8974H92.3242V73.3404H95.9932V75.7835H92.3242V78.8129H96.4306V81.2559H89.1412V68.4543H96.4306V70.8974ZM71.598 81.3536H68.6094V75.7102H67.0786V81.3536H64.0656V68.4787H67.0786V73.3649H68.6094V68.4787H71.598V81.3536ZM176.857 65.2539H58.793V85.0427H176.857V65.2539ZM114.994 72.5831V76.7118C114.994 77.4692 115.237 77.6402 115.893 77.6402H116.379V71.7036H115.893C115.237 71.7036 114.994 71.899 114.994 72.6564V72.5831ZM167.697 75.7102H167.016V79.0816H167.697C168.353 79.0816 168.547 78.9106 168.547 78.1777V76.6141C168.547 75.8812 168.353 75.7102 167.697 75.7102ZM119.732 71.7036H119.271V77.7135H119.732C120.413 77.7135 120.656 77.518 120.656 76.7607V72.6319C120.656 71.8746 120.413 71.7036 119.732 71.7036Z" fill="currentColor"/>
</svg>
