<svg width="100%" height="100%" viewBox="0 0 160 157" fill="none" xmlns="http://www.w3.org/2000/svg">
<path d="M39.1583 153.058L8.29165 136.84C3.06001 134.225 0.967354 127.423 3.58318 122.192L41.251 50.5182C43.8668 45.2866 50.668 43.1939 55.8996 45.8097L86.7663 62.0278C91.9979 64.6436 94.0906 71.4448 91.4748 76.6764L53.8069 148.35C51.1911 153.582 44.9132 155.674 39.1583 153.058Z" stroke="currentColor" stroke-width="4" stroke-miterlimit="10" stroke-linecap="round" stroke-linejoin="round"/>
<path d="M89.9899 79.9622L39.5 53.457L5.45665 118.306L55.9465 144.812L89.9899 79.9622Z" stroke="currentColor" stroke-width="4" stroke-miterlimit="10" stroke-linecap="round" stroke-linejoin="round"/>
<path d="M77.3477 27.4984C82.5793 25.4057 87.8109 24.3594 93.5658 24.3594C116.585 24.3594 135.419 43.1933 135.419 66.2125C135.419 86.0928 121.293 102.834 102.46 107.019" stroke="currentColor" stroke-width="4" stroke-miterlimit="10" stroke-linecap="round" stroke-linejoin="round"/>
<path d="M47.5273 22.267C59.037 9.71102 75.7782 2.38672 94.089 2.38672C129.141 2.38672 157.915 30.6376 157.915 66.2128C157.915 101.788 129.664 130.039 94.089 130.039" stroke="currentColor" stroke-width="4" stroke-miterlimit="10" stroke-linecap="round" stroke-linejoin="round"/>
<path d="M98.2773 47.3789C101.416 48.4252 104.032 49.9947 106.648 52.0874C112.926 58.3654 114.495 67.7823 111.356 75.6298" stroke="currentColor" stroke-width="4" stroke-miterlimit="10" stroke-linecap="round" stroke-linejoin="round"/>
</svg>
