<svg width="100%" height="100%" viewBox="0 0 399 399" fill="none" xmlns="http://www.w3.org/2000/svg">
<circle cx="195.315" cy="196.244" r="165.947" fill="#1C1F2B" stroke="#0089FF" stroke-width="7.17647"/>
<path d="M159.158 271.06L128.291 254.842C123.06 252.226 120.967 245.425 123.583 240.194L161.251 168.52C163.866 163.289 170.667 161.196 175.899 163.812L206.766 180.03C211.997 182.646 214.09 189.447 211.474 194.678L173.806 266.352C171.191 271.584 164.913 273.676 159.158 271.06Z" stroke="#0089FF" stroke-width="4" stroke-miterlimit="10" stroke-linecap="round" stroke-linejoin="round"/>
<path d="M209.989 197.962L159.5 171.457L125.456 236.306L175.946 262.812L209.989 197.962Z" stroke="#0089FF" stroke-width="4" stroke-miterlimit="10" stroke-linecap="round" stroke-linejoin="round"/>
<path d="M197.349 145.5C202.58 143.408 207.812 142.361 213.567 142.361C236.586 142.361 255.42 161.195 255.42 184.214C255.42 204.095 241.294 220.836 222.461 225.021" stroke="#0089FF" stroke-width="4" stroke-miterlimit="10" stroke-linecap="round" stroke-linejoin="round"/>
<path d="M167.528 140.269C179.038 127.713 195.779 120.389 214.09 120.389C249.142 120.389 277.916 148.64 277.916 184.215C277.916 219.79 249.665 248.041 214.09 248.041" stroke="#0089FF" stroke-width="4" stroke-miterlimit="10" stroke-linecap="round" stroke-linejoin="round"/>
<path d="M218.275 165.381C221.414 166.427 224.03 167.997 226.646 170.089C232.924 176.367 234.493 185.784 231.354 193.632" stroke="#0089FF" stroke-width="4" stroke-miterlimit="10" stroke-linecap="round" stroke-linejoin="round"/>
<path d="M195.648 27.3789C220.072 27.3789 244.207 32.6668 266.394 42.8791C288.581 53.0915 308.295 67.9863 324.179 86.5399C340.064 105.094 351.743 126.866 358.415 150.362C365.086 173.858 366.592 198.519 362.829 222.652L357.507 221.822C361.151 198.457 359.693 174.581 353.234 151.833C346.774 129.085 335.467 108.006 320.088 90.0427C304.709 72.0796 285.623 57.659 264.142 47.7717C242.662 37.8844 219.295 32.7649 195.648 32.7649V27.3789Z" fill="#0089FF"/>
<path opacity="0.5" d="M291.823 361.825C349.792 328.398 383.587 269 386.834 206.717L398.981 199.863C399.462 164.633 390.803 128.802 371.801 96.0968C361.337 77.9407 348.469 62.0692 333.796 48.6024L320.446 52.3298C300.001 34.8952 276.429 22.1499 251.172 14.5748C250.571 12.651 249.489 8.80334 249.008 7.12C210.522 -3.46102 168.789 -2.49911 129.702 11.6891C129.462 13.1319 129.101 16.8593 128.86 19.0236C119.479 22.6308 110.339 26.9594 101.439 32.1297C53.4527 59.7846 22.0628 105.235 10.878 155.375C8.95369 156.096 5.34567 157.419 3.66192 158.14C-3.55413 194.933 -0.186637 233.89 14.486 269.842L10.1564 274.892C13.4036 282.707 17.2521 290.283 21.5818 297.858C61.27 366.634 135.235 403.187 209.44 398.618L216.535 386.233C242.152 383.708 267.89 375.652 291.823 361.825ZM103.123 35.1357C192.482 -16.4468 306.856 14.2141 358.451 103.552C410.046 192.889 379.498 307.236 290.019 358.819C200.66 410.401 86.2857 379.74 34.6909 290.403C-16.9038 201.065 13.7644 86.7181 103.123 35.1357Z" fill="#606580" fill-opacity="0.25"/>
</svg>
