<svg width="100%" height="100%" viewBox="0 0 399 399" fill="none" xmlns="http://www.w3.org/2000/svg">
<path opacity="currentOpacity" d="M291.823 361.825C349.792 328.398 383.587 269 386.834 206.717L398.981 199.863C399.462 164.633 390.803 128.802 371.801 96.0968C361.337 77.9407 348.469 62.0692 333.796 48.6024L320.446 52.3298C300.001 34.8952 276.429 22.1499 251.172 14.5748C250.571 12.651 249.489 8.80334 249.008 7.12C210.522 -3.46102 168.789 -2.49911 129.702 11.6891C129.462 13.1319 129.101 16.8593 128.86 19.0236C119.479 22.6308 110.339 26.9594 101.439 32.1297C53.4527 59.7846 22.0628 105.235 10.878 155.375C8.95369 156.096 5.34567 157.419 3.66192 158.14C-3.55413 194.933 -0.186637 233.89 14.486 269.842L10.1564 274.892C13.4036 282.707 17.2521 290.283 21.5818 297.858C61.27 366.634 135.235 403.187 209.44 398.618L216.535 386.233C242.152 383.708 267.89 375.652 291.823 361.825ZM103.123 35.1357C192.482 -16.4468 306.856 14.2141 358.451 103.552C410.046 192.889 379.498 307.236 290.019 358.819C200.66 410.401 86.2857 379.74 34.6909 290.403C-16.9038 201.065 13.7644 86.7181 103.123 35.1357Z" fill="currentColor" fill-opacity="0.25"/>
</svg>
