<svg width="399" height="399" viewBox="0 0 399 399" fill="none" xmlns="http://www.w3.org/2000/svg">
<circle cx="195.315" cy="196.243" r="165.947" stroke="#0089FF" stroke-width="7.17647"/>
<path d="M159.158 271.059L128.292 254.841C123.06 252.225 120.967 245.424 123.583 240.193L161.251 168.519C163.867 163.288 170.668 161.195 175.9 163.811L206.766 180.029C211.998 182.645 214.091 189.446 211.475 194.677L173.807 266.351C171.191 271.583 164.913 273.675 159.158 271.059Z" stroke="#0089FF" stroke-width="4" stroke-miterlimit="10" stroke-linecap="round" stroke-linejoin="round"/>
<path d="M209.99 197.962L159.5 171.457L125.457 236.306L175.947 262.811L209.99 197.962Z" stroke="#0089FF" stroke-width="4" stroke-miterlimit="10" stroke-linecap="round" stroke-linejoin="round"/>
<path d="M197.35 145.5C202.581 143.407 207.813 142.361 213.568 142.361C236.587 142.361 255.421 161.195 255.421 184.214C255.421 204.094 241.295 220.835 222.461 225.021" stroke="#0089FF" stroke-width="4" stroke-miterlimit="10" stroke-linecap="round" stroke-linejoin="round"/>
<path d="M167.529 140.268C179.039 127.712 195.78 120.388 214.091 120.388C249.143 120.388 277.917 148.639 277.917 184.214C277.917 219.789 249.666 248.04 214.091 248.04" stroke="#0089FF" stroke-width="4" stroke-miterlimit="10" stroke-linecap="round" stroke-linejoin="round"/>
<path d="M218.275 165.38C221.414 166.426 224.03 167.996 226.646 170.089C232.924 176.367 234.493 185.784 231.354 193.631" stroke="#0089FF" stroke-width="4" stroke-miterlimit="10" stroke-linecap="round" stroke-linejoin="round"/>
<path d="M195.648 27.3789C220.072 27.3789 244.207 32.6668 266.394 42.8791C288.581 53.0915 308.295 67.9863 324.179 86.5399C340.064 105.094 351.743 126.866 358.415 150.362C365.086 173.858 366.592 198.519 362.829 222.652L357.507 221.822C361.151 198.457 359.693 174.581 353.234 151.833C346.774 129.085 335.467 108.006 320.088 90.0427C304.709 72.0796 285.623 57.659 264.142 47.7717C242.662 37.8844 219.295 32.7649 195.648 32.7649V27.3789Z" fill="#0089FF"/>
<path opacity="0.5" d="M291.823 361.825C349.792 328.398 383.587 269 386.834 206.717L398.981 199.863C399.462 164.633 390.803 128.802 371.801 96.0968C361.337 77.9407 348.469 62.0692 333.796 48.6024L320.446 52.3298C300.001 34.8952 276.429 22.1499 251.172 14.5748C250.571 12.651 249.489 8.80334 249.008 7.12C210.522 -3.46102 168.789 -2.49911 129.702 11.6891C129.462 13.1319 129.101 16.8593 128.86 19.0236C119.479 22.6308 110.339 26.9594 101.439 32.1297C53.4527 59.7846 22.0628 105.235 10.878 155.375C8.95369 156.096 5.34567 157.419 3.66192 158.14C-3.55413 194.933 -0.186637 233.89 14.486 269.842L10.1564 274.892C13.4036 282.707 17.2521 290.283 21.5818 297.858C61.27 366.634 135.235 403.187 209.44 398.618L216.535 386.233C242.152 383.708 267.89 375.652 291.823 361.825ZM103.123 35.1357C192.482 -16.4468 306.856 14.2141 358.451 103.552C410.046 192.889 379.498 307.236 290.019 358.819C200.66 410.401 86.2857 379.74 34.6909 290.403C-16.9038 201.065 13.7644 86.7181 103.123 35.1357Z" fill="currentColor" fill-opacity="0.5"/>
</svg>
