<svg width="512" height="511" viewBox="0 0 512 511" fill="none" xmlns="http://www.w3.org/2000/svg">
<path opacity="0.5" d="M373.849 463.389C448.09 420.58 491.372 344.509 495.53 264.742L511.087 255.965C511.703 210.846 500.613 164.957 476.277 123.071C462.877 99.8188 446.396 79.4921 427.605 62.2452L410.508 67.0189C384.323 44.6903 354.134 28.3674 321.788 18.666C321.018 16.2021 319.632 11.2745 319.016 9.11859C269.727 -4.43254 216.28 -3.20062 166.221 14.9702C165.913 16.8181 165.451 21.5918 165.143 24.3636C153.129 28.9833 141.423 34.527 130.025 41.1485C68.5682 76.5663 28.3673 134.775 14.0428 198.988C11.5783 199.912 6.95753 201.606 4.80116 202.53C-4.44045 249.651 -0.127698 299.544 18.6636 345.587L13.1186 352.055C17.2773 362.064 22.2062 371.765 27.7511 381.467C78.58 469.549 173.306 516.362 268.341 510.51L277.428 494.649C310.236 491.416 343.198 481.098 373.849 463.389ZM132.181 44.9983C246.623 -21.0635 393.103 18.204 459.18 132.619C525.258 247.033 486.135 393.478 371.539 459.54C257.097 525.601 110.618 486.334 44.5401 371.919C-21.5374 257.505 17.7394 111.06 132.181 44.9983Z" fill="currentColor" fill-opacity="0.25"/>
</svg>
