<svg width="639" height="420" viewBox="0 0 639 420" fill="none" xmlns="http://www.w3.org/2000/svg">
<rect opacity="0.5" x="0.5" y="0.5" width="638" height="419" rx="3.5" fill="currentColor" stroke="#0089FF"/>
<path d="M121.719 164.469H116.438C111.969 164.469 108.312 160.812 108.312 156.344V107.594H129.438V156.344C129.438 161.219 125.781 164.469 121.719 164.469Z" stroke="#606580" stroke-width="4" stroke-miterlimit="10"/>
<path d="M132.281 107.594H105.875C104.25 107.594 103.031 106.375 103.031 104.75V102.719C103.031 101.094 104.25 99.875 105.875 99.875H132.281C133.906 99.875 135.125 101.094 135.125 102.719V104.75C134.719 106.375 133.5 107.594 132.281 107.594Z" stroke="#606580" stroke-width="4" stroke-miterlimit="10"/>
<path d="M127.406 100.687H110.344V94.5938C110.344 92.9688 111.563 91.3438 113.594 91.3438H124.562C126.188 91.3438 127.813 92.5625 127.813 94.5938V100.687H127.406Z" stroke="#606580" stroke-width="4" stroke-miterlimit="10"/>
<path d="M160.719 75.5H76.625V180.719H160.719V75.5Z" stroke="#606580" stroke-width="4" stroke-miterlimit="10" stroke-linecap="round" stroke-linejoin="round"/>
<path d="M76.625 75.5L92.0625 61.2812H177.375V162.437" stroke="#606580" stroke-width="4" stroke-miterlimit="10" stroke-linecap="round" stroke-linejoin="round"/>
<path d="M79.875 178.688L96.125 162.438" stroke="#606580" stroke-width="4" stroke-miterlimit="10" stroke-linecap="round" stroke-linejoin="round"/>
<path d="M161.125 180.719L177.375 162.438" stroke="#606580" stroke-width="4" stroke-miterlimit="10" stroke-linecap="round" stroke-linejoin="round"/>
<path d="M143.25 161.625H159.5" stroke="#606580" stroke-miterlimit="10" stroke-linecap="round" stroke-linejoin="round"/>
<path d="M159.5 76.3125L173.719 62.0938" stroke="#606580" stroke-width="4" stroke-miterlimit="10" stroke-linecap="round" stroke-linejoin="round"/>
<path d="M238.505 115.48H228.603V113.407H232.285V99.7944H228.603V97.9395C229.994 97.9395 231.017 97.744 231.671 97.353C232.335 96.9529 232.708 96.2027 232.79 95.1025H234.904V113.407H238.505V115.48ZM246.62 115.48H243.36V111.593H246.62V115.48ZM276.504 120.076H273.94V115.425H260.764V120.076H258.2V113.079H259.305C260.487 111.142 261.437 108.605 262.155 105.468C262.883 102.322 263.247 98.8897 263.247 95.1707H274.581V113.079H276.504V120.076ZM271.88 113.079V97.5166H265.784C265.656 100.799 265.247 103.777 264.556 106.45C263.865 109.124 262.983 111.333 261.91 113.079H271.88ZM291.439 107.869C291.439 110.433 290.821 112.415 289.584 113.816C288.348 115.207 286.702 115.903 284.647 115.903C282.528 115.903 280.86 115.184 279.641 113.748C278.432 112.302 277.827 110.342 277.827 107.869C277.827 105.323 278.45 103.345 279.696 101.936C280.951 100.526 282.601 99.8217 284.647 99.8217C286.702 99.8217 288.348 100.526 289.584 101.936C290.821 103.336 291.439 105.314 291.439 107.869ZM288.793 107.869C288.793 105.896 288.434 104.432 287.716 103.477C286.997 102.513 285.974 102.031 284.647 102.031C283.31 102.031 282.278 102.513 281.551 103.477C280.832 104.432 280.473 105.896 280.473 107.869C280.473 109.778 280.832 111.229 281.551 112.22C282.278 113.202 283.31 113.693 284.647 113.693C285.965 113.693 286.984 113.211 287.702 112.247C288.429 111.274 288.793 109.815 288.793 107.869ZM300.128 115.821C299.082 115.821 298.123 115.662 297.25 115.343C296.377 115.016 295.627 114.525 294.999 113.87C294.372 113.216 293.885 112.393 293.54 111.402C293.194 110.401 293.021 109.228 293.021 107.883C293.021 106.546 293.199 105.391 293.553 104.418C293.917 103.445 294.399 102.627 294.999 101.963C295.599 101.299 296.345 100.79 297.236 100.435C298.136 100.072 299.1 99.8899 300.128 99.8899C300.964 99.8899 301.769 100.008 302.542 100.245C303.324 100.481 304.019 100.754 304.629 101.063V103.941H304.479C304.297 103.786 304.06 103.609 303.769 103.409C303.487 103.209 303.142 103.004 302.733 102.795C302.378 102.613 301.96 102.454 301.478 102.318C300.996 102.181 300.532 102.113 300.087 102.113C298.759 102.113 297.691 102.618 296.881 103.627C296.081 104.627 295.681 106.046 295.681 107.883C295.681 109.683 296.068 111.088 296.84 112.097C297.622 113.097 298.704 113.597 300.087 113.597C300.923 113.597 301.719 113.425 302.474 113.079C303.228 112.734 303.897 112.288 304.479 111.743H304.629V114.62C304.374 114.739 304.056 114.884 303.674 115.057C303.292 115.221 302.946 115.343 302.637 115.425C302.201 115.552 301.81 115.648 301.464 115.712C301.119 115.784 300.673 115.821 300.128 115.821ZM318.104 102.495H312.921V115.48H310.357V102.495H305.174V100.245H318.104V102.495ZM328.525 111.729V107.501C327.916 107.555 327.143 107.633 326.206 107.733C325.279 107.823 324.528 107.955 323.956 108.128C323.274 108.337 322.71 108.66 322.264 109.096C321.819 109.524 321.596 110.124 321.596 110.897C321.596 111.77 321.841 112.429 322.332 112.875C322.824 113.32 323.542 113.543 324.488 113.543C325.297 113.543 326.029 113.37 326.683 113.025C327.338 112.67 327.952 112.238 328.525 111.729ZM328.525 113.857C328.316 114.011 328.034 114.229 327.679 114.511C327.334 114.784 326.997 115.002 326.67 115.166C326.215 115.402 325.774 115.584 325.347 115.712C324.929 115.839 324.337 115.903 323.574 115.903C322.946 115.903 322.351 115.784 321.787 115.548C321.223 115.312 320.728 114.98 320.3 114.552C319.891 114.134 319.564 113.62 319.318 113.011C319.073 112.393 318.95 111.743 318.95 111.061C318.95 110.006 319.173 109.11 319.618 108.374C320.064 107.628 320.769 107.037 321.732 106.6C322.587 106.209 323.596 105.941 324.76 105.796C325.924 105.641 327.179 105.528 328.525 105.455V104.964C328.525 104.364 328.434 103.882 328.252 103.518C328.07 103.145 327.816 102.859 327.488 102.659C327.161 102.45 326.761 102.313 326.288 102.25C325.815 102.177 325.329 102.14 324.828 102.14C324.237 102.14 323.542 102.231 322.742 102.413C321.941 102.586 321.141 102.841 320.341 103.177H320.191V100.572C320.664 100.435 321.341 100.285 322.223 100.122C323.105 99.9581 323.978 99.8763 324.842 99.8763C325.888 99.8763 326.77 99.9581 327.488 100.122C328.207 100.285 328.852 100.581 329.425 101.008C329.98 101.427 330.393 101.968 330.666 102.631C330.939 103.295 331.075 104.104 331.075 105.059V115.48H328.525V113.857ZM346.638 110.87C346.638 111.606 346.497 112.261 346.215 112.834C345.933 113.397 345.547 113.87 345.056 114.252C344.437 114.734 343.787 115.061 343.105 115.234C342.432 115.398 341.623 115.48 340.677 115.48H334.69V100.245H340.282C341.4 100.245 342.219 100.281 342.737 100.354C343.255 100.417 343.769 100.59 344.278 100.872C344.815 101.163 345.21 101.549 345.465 102.031C345.72 102.513 345.847 103.086 345.847 103.75C345.847 104.477 345.647 105.132 345.247 105.714C344.847 106.287 344.315 106.732 343.651 107.051L343.719 107.146C344.547 107.355 345.238 107.778 345.792 108.415C346.356 109.051 346.638 109.869 346.638 110.87ZM343.214 104.145C343.214 103.8 343.155 103.5 343.037 103.245C342.928 102.991 342.732 102.791 342.451 102.645C342.123 102.472 341.755 102.372 341.346 102.345C340.946 102.309 340.387 102.29 339.668 102.29H337.227V106.464H340.173C340.8 106.464 341.246 106.437 341.509 106.382C341.773 106.319 342.064 106.191 342.382 106C342.682 105.818 342.896 105.573 343.023 105.264C343.151 104.955 343.214 104.582 343.214 104.145ZM343.992 110.883C343.992 110.365 343.915 109.951 343.76 109.642C343.614 109.324 343.287 109.042 342.778 108.796C342.46 108.642 342.119 108.546 341.755 108.51C341.391 108.474 340.887 108.455 340.241 108.455H337.227V113.434H339.45C340.368 113.434 341.082 113.397 341.591 113.325C342.101 113.252 342.537 113.106 342.901 112.888C343.283 112.652 343.56 112.379 343.733 112.07C343.905 111.761 343.992 111.365 343.992 110.883ZM360.877 110.761C360.877 111.497 360.727 112.165 360.427 112.765C360.136 113.366 359.736 113.852 359.227 114.225C358.627 114.68 357.986 115.002 357.304 115.193C356.622 115.384 355.744 115.48 354.672 115.48H349.339V100.245H351.903V106.178H354.74C355.885 106.178 356.772 106.237 357.399 106.355C358.036 106.473 358.668 106.764 359.295 107.228C359.823 107.619 360.218 108.119 360.482 108.728C360.746 109.337 360.877 110.015 360.877 110.761ZM358.231 110.801C358.231 110.338 358.15 109.933 357.986 109.588C357.831 109.233 357.572 108.946 357.208 108.728C356.827 108.501 356.39 108.365 355.899 108.319C355.417 108.274 354.722 108.251 353.812 108.251H351.903V113.434H353.758C354.667 113.434 355.372 113.397 355.872 113.325C356.372 113.243 356.804 113.093 357.168 112.875C357.54 112.638 357.809 112.361 357.972 112.043C358.145 111.715 358.231 111.302 358.231 110.801ZM374.462 102.495H369.279V115.48H366.715V102.495H361.532V100.245H374.462V102.495ZM382.987 115.834C380.559 115.834 378.672 115.152 377.327 113.788C375.99 112.415 375.322 110.47 375.322 107.951C375.322 105.468 375.972 103.495 377.272 102.031C378.572 100.558 380.273 99.8217 382.373 99.8217C383.319 99.8217 384.155 99.9581 384.883 100.231C385.61 100.504 386.247 100.931 386.792 101.513C387.338 102.095 387.756 102.809 388.047 103.654C388.338 104.491 388.484 105.518 388.484 106.737V108.128H377.927C377.927 109.901 378.372 111.256 379.263 112.193C380.154 113.129 381.387 113.597 382.96 113.597C383.523 113.597 384.074 113.534 384.61 113.407C385.156 113.279 385.647 113.116 386.083 112.916C386.547 112.706 386.938 112.506 387.256 112.315C387.574 112.115 387.838 111.929 388.047 111.756H388.197V114.552C387.897 114.67 387.524 114.82 387.079 115.002C386.633 115.175 386.233 115.312 385.878 115.412C385.378 115.548 384.924 115.653 384.515 115.725C384.114 115.798 383.605 115.834 382.987 115.834ZM385.988 106.164C385.969 105.473 385.888 104.877 385.742 104.377C385.597 103.877 385.387 103.454 385.115 103.109C384.815 102.727 384.428 102.436 383.955 102.236C383.492 102.036 382.914 101.936 382.223 101.936C381.541 101.936 380.959 102.04 380.477 102.25C380.004 102.45 379.573 102.745 379.182 103.136C378.8 103.536 378.509 103.982 378.309 104.473C378.109 104.955 377.981 105.518 377.927 106.164H385.988ZM409.897 111.265C409.897 112.12 409.711 112.843 409.338 113.434C408.965 114.025 408.488 114.493 407.906 114.839C407.351 115.175 406.719 115.425 406.01 115.589C405.301 115.753 404.592 115.834 403.882 115.834C402.882 115.834 401.937 115.734 401.045 115.534C400.154 115.343 399.268 115.034 398.386 114.607V111.77H398.549C399.168 112.343 399.941 112.797 400.868 113.134C401.805 113.461 402.737 113.625 403.664 113.625C404.064 113.625 404.492 113.584 404.946 113.502C405.41 113.411 405.801 113.275 406.119 113.093C406.538 112.838 406.833 112.565 407.006 112.274C407.188 111.984 407.279 111.583 407.279 111.074C407.279 110.529 407.174 110.092 406.965 109.765C406.765 109.428 406.488 109.178 406.133 109.015C405.778 108.851 405.378 108.751 404.933 108.715C404.496 108.669 404.032 108.646 403.541 108.646H401.741V106.437H403.119C403.464 106.437 403.896 106.428 404.414 106.41C404.933 106.382 405.346 106.31 405.656 106.191C406.047 106.046 406.36 105.841 406.597 105.578C406.833 105.305 406.951 104.85 406.951 104.214C406.951 103.768 406.851 103.409 406.651 103.136C406.451 102.863 406.201 102.65 405.901 102.495C405.592 102.331 405.255 102.222 404.892 102.168C404.528 102.104 404.178 102.072 403.842 102.072C402.978 102.072 402.146 102.195 401.346 102.44C400.554 102.677 399.872 103.032 399.3 103.504H399.136V100.736C399.791 100.508 400.514 100.308 401.305 100.135C402.105 99.9626 402.905 99.8763 403.705 99.8763C404.351 99.8763 405.005 99.9445 405.669 100.081C406.342 100.208 406.979 100.431 407.579 100.749C408.143 101.058 408.615 101.486 408.997 102.031C409.379 102.568 409.57 103.227 409.57 104.009C409.57 104.836 409.334 105.564 408.861 106.191C408.397 106.81 407.779 107.219 407.006 107.419V107.514C407.852 107.805 408.543 108.251 409.079 108.851C409.625 109.451 409.897 110.256 409.897 111.265ZM421.109 111.729V107.501C420.5 107.555 419.727 107.633 418.79 107.733C417.863 107.823 417.113 107.955 416.54 108.128C415.858 108.337 415.294 108.66 414.849 109.096C414.403 109.524 414.18 110.124 414.18 110.897C414.18 111.77 414.426 112.429 414.917 112.875C415.408 113.32 416.126 113.543 417.072 113.543C417.881 113.543 418.613 113.37 419.268 113.025C419.922 112.67 420.536 112.238 421.109 111.729ZM421.109 113.857C420.9 114.011 420.618 114.229 420.263 114.511C419.918 114.784 419.581 115.002 419.254 115.166C418.799 115.402 418.358 115.584 417.931 115.712C417.513 115.839 416.922 115.903 416.158 115.903C415.531 115.903 414.935 115.784 414.371 115.548C413.807 115.312 413.312 114.98 412.884 114.552C412.475 114.134 412.148 113.62 411.902 113.011C411.657 112.393 411.534 111.743 411.534 111.061C411.534 110.006 411.757 109.11 412.203 108.374C412.648 107.628 413.353 107.037 414.317 106.6C415.171 106.209 416.181 105.941 417.345 105.796C418.508 105.641 419.763 105.528 421.109 105.455V104.964C421.109 104.364 421.018 103.882 420.836 103.518C420.654 103.145 420.4 102.859 420.072 102.659C419.745 102.45 419.345 102.313 418.872 102.25C418.399 102.177 417.913 102.14 417.413 102.14C416.822 102.14 416.126 102.231 415.326 102.413C414.526 102.586 413.726 102.841 412.925 103.177H412.775V100.572C413.248 100.435 413.926 100.285 414.808 100.122C415.69 99.9581 416.563 99.8763 417.426 99.8763C418.472 99.8763 419.354 99.9581 420.072 100.122C420.791 100.285 421.436 100.581 422.009 101.008C422.564 101.427 422.978 101.968 423.25 102.631C423.523 103.295 423.66 104.104 423.66 105.059V115.48H421.109V113.857ZM439.304 115.48H436.74V102.454H429.838V115.48H427.274V100.245H439.304V115.48ZM455.549 107.869C455.549 110.433 454.93 112.415 453.694 113.816C452.457 115.207 450.811 115.903 448.756 115.903C446.637 115.903 444.969 115.184 443.75 113.748C442.541 112.302 441.936 110.342 441.936 107.869C441.936 105.323 442.559 103.345 443.805 101.936C445.06 100.526 446.71 99.8217 448.756 99.8217C450.811 99.8217 452.457 100.526 453.694 101.936C454.93 103.336 455.549 105.314 455.549 107.869ZM452.902 107.869C452.902 105.896 452.543 104.432 451.825 103.477C451.107 102.513 450.084 102.031 448.756 102.031C447.419 102.031 446.387 102.513 445.66 103.477C444.942 104.432 444.582 105.896 444.582 107.869C444.582 109.778 444.942 111.229 445.66 112.22C446.387 113.202 447.419 113.693 448.756 113.693C450.075 113.693 451.093 113.211 451.811 112.247C452.539 111.274 452.902 109.815 452.902 107.869ZM469.979 115.48H467.415V102.4H462.177C462.15 103.154 462.123 103.882 462.095 104.582C462.068 105.273 462.041 105.9 462.014 106.464C461.959 107.892 461.864 109.087 461.727 110.051C461.6 111.015 461.436 111.788 461.236 112.37C461.036 112.97 460.813 113.438 460.568 113.775C460.331 114.111 460.063 114.416 459.763 114.689C459.454 114.961 459.122 115.166 458.767 115.302C458.413 115.439 458.013 115.507 457.567 115.507C457.422 115.507 457.235 115.502 457.008 115.493C456.781 115.484 456.621 115.48 456.531 115.48V113.243H456.667C456.731 113.243 456.794 113.247 456.858 113.257C456.931 113.266 457.012 113.27 457.103 113.27C457.322 113.27 457.535 113.238 457.744 113.175C457.954 113.111 458.14 112.993 458.304 112.82C458.758 112.374 459.09 111.597 459.299 110.488C459.508 109.369 459.659 107.81 459.749 105.809C459.786 105.064 459.818 104.182 459.845 103.163C459.881 102.145 459.913 101.172 459.94 100.245H469.979V115.48ZM485.733 115.48H483.168V108.619H476.267V115.48H473.703V100.245H476.267V106.41H483.168V100.245H485.733V115.48ZM496.058 115.834C493.63 115.834 491.743 115.152 490.397 113.788C489.061 112.415 488.392 110.47 488.392 107.951C488.392 105.468 489.042 103.495 490.343 102.031C491.643 100.558 493.343 99.8217 495.444 99.8217C496.389 99.8217 497.226 99.9581 497.953 100.231C498.681 100.504 499.317 100.931 499.863 101.513C500.409 102.095 500.827 102.809 501.118 103.654C501.409 104.491 501.554 105.518 501.554 106.737V108.128H490.997C490.997 109.901 491.443 111.256 492.334 112.193C493.225 113.129 494.457 113.597 496.03 113.597C496.594 113.597 497.144 113.534 497.681 113.407C498.226 113.279 498.717 113.116 499.154 112.916C499.617 112.706 500.008 112.506 500.327 112.315C500.645 112.115 500.909 111.929 501.118 111.756H501.268V114.552C500.968 114.67 500.595 114.82 500.149 115.002C499.704 115.175 499.304 115.312 498.949 115.412C498.449 115.548 497.994 115.653 497.585 115.725C497.185 115.798 496.676 115.834 496.058 115.834ZM499.058 106.164C499.04 105.473 498.958 104.877 498.813 104.377C498.667 103.877 498.458 103.454 498.185 103.109C497.885 102.727 497.499 102.436 497.026 102.236C496.562 102.036 495.985 101.936 495.294 101.936C494.612 101.936 494.03 102.04 493.548 102.25C493.075 102.45 492.643 102.745 492.252 103.136C491.87 103.536 491.579 103.982 491.379 104.473C491.179 104.955 491.052 105.518 490.997 106.164H499.058ZM516.176 115.48H513.611V108.619H506.71V115.48H504.146V100.245H506.71V106.41H513.611V100.245H516.176V115.48ZM531.916 115.48H529.351V108.619H522.45V115.48H519.886V100.245H522.45V106.41H529.351V100.245H531.916V115.48ZM547.601 100.245L539.404 121.099H536.662L539.39 114.743L533.852 100.245H536.621L540.781 111.524L544.928 100.245H547.601ZM568.183 107.869C568.183 110.424 567.564 112.402 566.328 113.802C565.1 115.202 563.473 115.903 561.445 115.903C559.453 115.903 557.871 115.248 556.698 113.938C555.534 112.62 554.898 110.824 554.789 108.551H552.102V115.48H549.538V100.245H552.102V106.45H554.843C555.052 104.377 555.744 102.754 556.917 101.581C558.09 100.408 559.599 99.8217 561.445 99.8217C563.582 99.8217 565.237 100.549 566.41 102.004C567.592 103.459 568.183 105.414 568.183 107.869ZM565.537 107.869C565.537 105.923 565.177 104.464 564.459 103.491C563.75 102.518 562.745 102.031 561.445 102.031C560.126 102.031 559.108 102.522 558.39 103.504C557.68 104.486 557.326 105.941 557.326 107.869C557.326 109.778 557.685 111.229 558.403 112.22C559.122 113.202 560.135 113.693 561.445 113.693C562.745 113.693 563.75 113.216 564.459 112.261C565.177 111.297 565.537 109.833 565.537 107.869ZM238.505 136.495H233.322V149.48H230.758V136.495H225.575V134.245H238.505V136.495ZM248.925 145.729V141.501C248.316 141.555 247.543 141.633 246.607 141.733C245.679 141.823 244.929 141.955 244.356 142.128C243.674 142.337 243.11 142.66 242.665 143.096C242.219 143.524 241.996 144.124 241.996 144.897C241.996 145.77 242.242 146.429 242.733 146.875C243.224 147.32 243.942 147.543 244.888 147.543C245.697 147.543 246.429 147.37 247.084 147.025C247.739 146.67 248.352 146.238 248.925 145.729ZM248.925 147.857C248.716 148.011 248.434 148.229 248.08 148.511C247.734 148.784 247.398 149.002 247.07 149.166C246.616 149.402 246.175 149.584 245.747 149.712C245.329 149.839 244.738 149.903 243.974 149.903C243.347 149.903 242.751 149.784 242.187 149.548C241.624 149.312 241.128 148.98 240.701 148.552C240.291 148.134 239.964 147.62 239.719 147.011C239.473 146.393 239.35 145.743 239.35 145.061C239.35 144.006 239.573 143.11 240.019 142.374C240.464 141.628 241.169 141.037 242.133 140.6C242.988 140.209 243.997 139.941 245.161 139.796C246.325 139.641 247.579 139.528 248.925 139.455V138.964C248.925 138.364 248.834 137.882 248.652 137.518C248.471 137.145 248.216 136.859 247.889 136.659C247.561 136.45 247.161 136.313 246.688 136.25C246.216 136.177 245.729 136.14 245.229 136.14C244.638 136.14 243.942 136.231 243.142 136.413C242.342 136.586 241.542 136.841 240.742 137.177H240.592V134.572C241.064 134.435 241.742 134.285 242.624 134.122C243.506 133.958 244.379 133.876 245.243 133.876C246.288 133.876 247.17 133.958 247.889 134.122C248.607 134.285 249.253 134.581 249.825 135.008C250.38 135.427 250.794 135.968 251.067 136.631C251.339 137.295 251.476 138.104 251.476 139.059V149.48H248.925V147.857ZM267.87 141.46C267.87 143.997 267.261 146.02 266.043 147.529C264.833 149.03 263.301 149.78 261.446 149.78C260.691 149.78 260.023 149.693 259.441 149.521C258.859 149.348 258.264 149.08 257.654 148.716V155.099H255.09V134.245H257.654V135.84C258.291 135.267 258.996 134.79 259.769 134.408C260.551 134.017 261.401 133.822 262.319 133.822C264.065 133.822 265.424 134.513 266.397 135.895C267.379 137.277 267.87 139.132 267.87 141.46ZM265.224 141.746C265.224 140.009 264.947 138.664 264.392 137.709C263.838 136.745 262.937 136.263 261.692 136.263C260.964 136.263 260.26 136.427 259.578 136.754C258.905 137.072 258.264 137.486 257.654 137.995V146.629C258.327 146.956 258.9 147.179 259.373 147.297C259.855 147.416 260.405 147.475 261.023 147.475C262.351 147.475 263.383 146.988 264.12 146.015C264.856 145.042 265.224 143.619 265.224 141.746ZM282.505 134.245L274.308 155.099H271.567L274.295 148.743L268.757 134.245H271.526L275.686 145.524L279.832 134.245H282.505ZM305.12 144.87C305.12 145.606 304.979 146.261 304.697 146.834C304.415 147.397 304.028 147.87 303.537 148.252C302.919 148.734 302.269 149.061 301.587 149.234C300.914 149.398 300.105 149.48 299.159 149.48H293.171V134.245H298.764C299.882 134.245 300.7 134.281 301.219 134.354C301.737 134.417 302.251 134.59 302.76 134.872C303.296 135.163 303.692 135.549 303.947 136.031C304.201 136.513 304.328 137.086 304.328 137.75C304.328 138.477 304.128 139.132 303.728 139.714C303.328 140.287 302.796 140.732 302.133 141.051L302.201 141.146C303.028 141.355 303.719 141.778 304.274 142.415C304.838 143.051 305.12 143.869 305.12 144.87ZM301.696 138.145C301.696 137.8 301.637 137.5 301.519 137.245C301.41 136.991 301.214 136.791 300.932 136.645C300.605 136.472 300.237 136.372 299.827 136.345C299.427 136.309 298.868 136.29 298.15 136.29H295.708V140.464H298.654C299.282 140.464 299.727 140.437 299.991 140.382C300.255 140.319 300.546 140.191 300.864 140C301.164 139.818 301.378 139.573 301.505 139.264C301.632 138.955 301.696 138.582 301.696 138.145ZM302.474 144.883C302.474 144.365 302.396 143.951 302.242 143.642C302.096 143.324 301.769 143.042 301.26 142.796C300.941 142.642 300.6 142.546 300.237 142.51C299.873 142.474 299.368 142.455 298.723 142.455H295.708V147.434H297.932C298.85 147.434 299.564 147.397 300.073 147.325C300.582 147.252 301.019 147.106 301.382 146.888C301.764 146.652 302.042 146.379 302.214 146.07C302.387 145.761 302.474 145.365 302.474 144.883ZM316.754 149.48V129.171H329.452V131.571H319.455V137.136H328.77V139.537H319.455V147.079H329.452V149.48H316.754ZM347.252 149.48H344.551V131.571H337.704C337.677 132.599 337.64 133.603 337.595 134.586C337.55 135.558 337.513 136.431 337.486 137.204C337.413 139.123 337.295 140.71 337.131 141.964C336.977 143.219 336.772 144.269 336.517 145.115C336.272 145.943 335.981 146.611 335.645 147.12C335.317 147.629 334.958 148.057 334.567 148.402C334.158 148.775 333.717 149.057 333.244 149.248C332.78 149.43 332.239 149.521 331.621 149.521C331.43 149.521 331.234 149.512 331.034 149.493C330.843 149.484 330.693 149.48 330.584 149.48V146.861H330.775C330.866 146.87 330.943 146.879 331.007 146.888C331.071 146.897 331.166 146.902 331.294 146.902C331.621 146.902 331.926 146.852 332.207 146.752C332.489 146.652 332.73 146.497 332.93 146.288C333.549 145.679 333.999 144.597 334.281 143.042C334.572 141.478 334.776 139.377 334.894 136.741C334.94 135.849 334.985 134.672 335.031 133.208C335.076 131.744 335.117 130.398 335.154 129.171H347.252V149.48ZM366.388 149.48H362.951L355.776 140.178H354.071V149.48H351.371V129.171H354.071V138.323C355.135 138.286 355.976 138.018 356.595 137.518C357.222 137.018 357.731 136.3 358.122 135.363C358.286 134.954 358.431 134.567 358.559 134.204C358.695 133.831 358.804 133.517 358.886 133.262C359.432 131.708 360.127 130.639 360.973 130.057C361.819 129.466 362.992 129.171 364.492 129.171H365.324V131.585H364.642C363.533 131.585 362.755 131.803 362.31 132.24C361.864 132.667 361.455 133.481 361.082 134.681C360.709 135.881 360.291 136.763 359.827 137.327C359.363 137.882 358.804 138.373 358.15 138.8L366.388 149.48Z" fill="#8C99B2"/>
<path d="M95.3125 350.094L71.3437 337.5C67.2812 335.469 65.6562 330.187 67.6875 326.125L96.9375 270.469C98.9687 266.406 104.25 264.781 108.312 266.812L132.281 279.406C136.344 281.437 137.969 286.719 135.937 290.781L106.687 346.437C104.656 350.5 99.7812 352.125 95.3125 350.094Z" stroke="#606580" stroke-width="4" stroke-miterlimit="10" stroke-linecap="round" stroke-linejoin="round"/>
<path d="M134.784 293.331L95.5776 272.75L69.1421 323.107L108.349 343.689L134.784 293.331Z" stroke="#606580" stroke-width="4" stroke-miterlimit="10" stroke-linecap="round" stroke-linejoin="round"/>
<path d="M124.969 252.594C129.031 250.969 133.094 250.156 137.563 250.156C155.438 250.156 170.063 264.781 170.063 282.656C170.063 298.094 159.094 311.094 144.469 314.344" stroke="#606580" stroke-width="4" stroke-miterlimit="10" stroke-linecap="round" stroke-linejoin="round"/>
<path d="M101.812 248.531C110.75 238.781 123.75 233.094 137.969 233.094C165.188 233.094 187.531 255.031 187.531 282.656C187.531 310.281 165.594 332.219 137.969 332.219" stroke="#606580" stroke-width="4" stroke-miterlimit="10" stroke-linecap="round" stroke-linejoin="round"/>
<path d="M141.219 268.031C143.656 268.844 145.687 270.062 147.719 271.687C152.594 276.562 153.812 283.875 151.375 289.969" stroke="#606580" stroke-width="4" stroke-miterlimit="10" stroke-linecap="round" stroke-linejoin="round"/>
<path d="M249.68 255.133H237.925V252.459C238.77 251.658 239.567 250.89 240.317 250.157C241.068 249.424 241.801 248.661 242.517 247.868C243.967 246.273 244.956 244.998 245.485 244.043C246.013 243.08 246.278 242.086 246.278 241.063C246.278 240.534 246.192 240.07 246.022 239.669C245.86 239.268 245.634 238.936 245.344 238.671C245.045 238.416 244.7 238.224 244.308 238.096C243.916 237.968 243.485 237.904 243.016 237.904C242.564 237.904 242.104 237.964 241.635 238.083C241.174 238.194 240.731 238.335 240.304 238.505C239.946 238.65 239.601 238.825 239.268 239.029C238.936 239.234 238.667 239.409 238.463 239.554H238.322V236.842C238.851 236.578 239.584 236.322 240.522 236.075C241.468 235.819 242.364 235.691 243.208 235.691C244.981 235.691 246.371 236.164 247.378 237.111C248.384 238.049 248.887 239.324 248.887 240.935C248.887 241.677 248.797 242.363 248.618 242.994C248.448 243.625 248.209 244.21 247.902 244.747C247.586 245.301 247.207 245.851 246.764 246.397C246.32 246.942 245.851 247.48 245.357 248.008C244.555 248.878 243.66 249.782 242.671 250.72C241.69 251.658 240.906 252.4 240.317 252.945H249.68V255.133ZM256.318 255.133H253.261V251.487H256.318V255.133ZM284.342 259.443H281.937V255.081H269.582V259.443H267.177V252.881H268.213C269.322 251.065 270.213 248.686 270.886 245.744C271.568 242.794 271.91 239.575 271.91 236.088H282.538V252.881H284.342V259.443ZM280.006 252.881V238.288H274.289C274.169 241.366 273.785 244.158 273.137 246.665C272.489 249.172 271.662 251.244 270.656 252.881H280.006ZM297.657 255.133H295.252V242.867H290.34C290.315 243.574 290.289 244.256 290.264 244.913C290.238 245.561 290.213 246.149 290.187 246.678C290.136 248.017 290.046 249.138 289.918 250.042C289.799 250.946 289.646 251.671 289.458 252.216C289.27 252.779 289.061 253.218 288.831 253.534C288.61 253.849 288.358 254.135 288.077 254.391C287.787 254.647 287.475 254.838 287.143 254.966C286.81 255.094 286.435 255.158 286.017 255.158C285.881 255.158 285.706 255.154 285.493 255.145C285.28 255.137 285.131 255.133 285.045 255.133V253.035H285.173C285.233 253.035 285.293 253.039 285.352 253.048C285.42 253.056 285.497 253.061 285.582 253.061C285.787 253.061 285.987 253.031 286.184 252.971C286.38 252.911 286.555 252.8 286.708 252.638C287.134 252.221 287.446 251.492 287.642 250.451C287.838 249.402 287.979 247.94 288.064 246.064C288.098 245.365 288.128 244.538 288.153 243.583C288.187 242.628 288.217 241.715 288.243 240.846H297.657V255.133ZM311.496 255.133H309.091V249.466H306.712L302.479 255.133H299.677L304.269 249.249C303.084 248.899 302.214 248.379 301.66 247.689C301.114 246.998 300.841 246.073 300.841 244.913C300.841 244.205 300.995 243.587 301.302 243.058C301.617 242.521 302.039 242.069 302.568 241.703C302.994 241.413 303.532 241.2 304.18 241.063C304.828 240.918 305.553 240.846 306.354 240.846H311.496V255.133ZM309.091 247.573V242.764H306.482C305.928 242.764 305.489 242.794 305.165 242.854C304.849 242.913 304.542 243.029 304.244 243.199C303.937 243.387 303.702 243.643 303.54 243.967C303.387 244.282 303.31 244.623 303.31 244.99C303.31 245.459 303.361 245.842 303.463 246.141C303.574 246.431 303.77 246.699 304.052 246.947C304.35 247.203 304.713 247.373 305.139 247.458C305.574 247.535 306.047 247.573 306.559 247.573H309.091ZM334.455 255.133H332.05V242.918H325.578V255.133H323.173V240.846H334.455V255.133ZM349.688 247.996C349.688 250.4 349.108 252.259 347.948 253.572C346.789 254.877 345.245 255.529 343.318 255.529C341.332 255.529 339.767 254.855 338.624 253.508C337.49 252.152 336.923 250.315 336.923 247.996C336.923 245.608 337.507 243.753 338.675 242.432C339.852 241.11 341.4 240.449 343.318 240.449C345.245 240.449 346.789 241.11 347.948 242.432C349.108 243.745 349.688 245.599 349.688 247.996ZM347.207 247.996C347.207 246.145 346.87 244.772 346.196 243.877C345.523 242.973 344.563 242.521 343.318 242.521C342.065 242.521 341.097 242.973 340.415 243.877C339.741 244.772 339.404 246.145 339.404 247.996C339.404 249.786 339.741 251.146 340.415 252.076C341.097 252.997 342.065 253.457 343.318 253.457C344.555 253.457 345.51 253.005 346.183 252.101C346.866 251.189 347.207 249.82 347.207 247.996ZM364.41 258.56H362.171V255.094H352.758V258.56H350.519V253.086H351.466C352.276 251.756 352.937 250.021 353.448 247.88C353.968 245.732 354.229 243.387 354.229 240.846H362.99V253.086H364.41V258.56ZM360.585 253.086V242.867H356.492C356.382 244.998 356.087 246.947 355.61 248.712C355.141 250.468 354.548 251.926 353.832 253.086H360.585ZM377.226 242.956H372.365V255.133H369.961V242.956H365.1V240.846H377.226V242.956ZM390.221 250.809C390.221 251.5 390.089 252.114 389.824 252.651C389.56 253.18 389.198 253.623 388.737 253.981C388.157 254.433 387.548 254.74 386.908 254.902C386.277 255.056 385.518 255.133 384.631 255.133H379.016V240.846H384.26C385.309 240.846 386.077 240.88 386.563 240.948C387.049 241.008 387.531 241.17 388.008 241.434C388.511 241.707 388.882 242.069 389.121 242.521C389.36 242.973 389.479 243.51 389.479 244.133C389.479 244.815 389.291 245.429 388.916 245.975C388.541 246.512 388.042 246.93 387.42 247.228L387.484 247.318C388.26 247.514 388.908 247.91 389.428 248.507C389.956 249.104 390.221 249.871 390.221 250.809ZM387.01 244.504C387.01 244.18 386.955 243.898 386.844 243.66C386.742 243.421 386.558 243.233 386.294 243.097C385.987 242.935 385.642 242.841 385.258 242.815C384.883 242.781 384.358 242.764 383.685 242.764H381.395V246.678H384.158C384.746 246.678 385.164 246.653 385.412 246.601C385.659 246.542 385.932 246.422 386.23 246.243C386.512 246.073 386.712 245.842 386.831 245.553C386.951 245.263 387.01 244.913 387.01 244.504ZM387.739 250.822C387.739 250.336 387.667 249.948 387.522 249.658C387.386 249.36 387.079 249.095 386.601 248.865C386.303 248.72 385.983 248.631 385.642 248.597C385.301 248.563 384.827 248.546 384.222 248.546H381.395V253.214H383.48C384.341 253.214 385.011 253.18 385.488 253.112C385.966 253.043 386.375 252.907 386.716 252.702C387.074 252.481 387.334 252.225 387.496 251.935C387.658 251.645 387.739 251.274 387.739 250.822ZM398.957 255.465C396.68 255.465 394.911 254.826 393.649 253.547C392.395 252.259 391.768 250.434 391.768 248.072C391.768 245.744 392.378 243.894 393.597 242.521C394.817 241.14 396.411 240.449 398.381 240.449C399.268 240.449 400.052 240.577 400.734 240.833C401.417 241.089 402.014 241.489 402.525 242.035C403.037 242.581 403.429 243.25 403.702 244.043C403.975 244.828 404.111 245.791 404.111 246.934V248.239H394.211C394.211 249.901 394.629 251.172 395.465 252.05C396.3 252.928 397.456 253.367 398.931 253.367C399.46 253.367 399.976 253.308 400.479 253.188C400.99 253.069 401.451 252.916 401.86 252.728C402.295 252.532 402.662 252.344 402.96 252.165C403.258 251.978 403.506 251.803 403.702 251.641H403.843V254.263C403.561 254.374 403.212 254.514 402.794 254.685C402.376 254.847 402.001 254.975 401.668 255.069C401.199 255.197 400.773 255.295 400.389 255.363C400.014 255.431 399.536 255.465 398.957 255.465ZM401.77 246.397C401.753 245.749 401.677 245.19 401.54 244.721C401.404 244.252 401.208 243.856 400.952 243.532C400.671 243.174 400.308 242.901 399.865 242.713C399.43 242.525 398.888 242.432 398.24 242.432C397.601 242.432 397.055 242.53 396.603 242.726C396.16 242.913 395.755 243.191 395.388 243.557C395.03 243.932 394.757 244.35 394.569 244.811C394.382 245.263 394.263 245.791 394.211 246.397H401.77ZM418.526 247.612C418.526 249.991 417.955 251.888 416.812 253.304C415.678 254.71 414.241 255.414 412.502 255.414C411.794 255.414 411.167 255.333 410.621 255.171C410.076 255.009 409.517 254.757 408.946 254.416V260.402H406.541V240.846H408.946V242.342C409.543 241.805 410.204 241.357 410.928 240.999C411.662 240.633 412.459 240.449 413.32 240.449C414.957 240.449 416.232 241.097 417.145 242.393C418.065 243.689 418.526 245.429 418.526 247.612ZM416.045 247.88C416.045 246.252 415.785 244.99 415.264 244.094C414.744 243.191 413.9 242.739 412.732 242.739C412.05 242.739 411.389 242.892 410.749 243.199C410.118 243.498 409.517 243.886 408.946 244.363V252.459C409.577 252.766 410.114 252.975 410.558 253.086C411.009 253.197 411.525 253.252 412.105 253.252C413.35 253.252 414.318 252.796 415.009 251.884C415.699 250.971 416.045 249.637 416.045 247.88ZM438.364 255.133H435.46L430.971 248.558H430.037V255.133H427.658V248.558H426.725L422.158 255.133H419.383L424.768 247.65C424.35 247.428 423.979 247.109 423.655 246.691C423.331 246.265 423.041 245.651 422.785 244.849C422.555 244.124 422.282 243.621 421.967 243.34C421.651 243.058 421.135 242.918 420.419 242.918H419.869V240.846H420.521C421.57 240.846 422.431 241.059 423.105 241.485C423.787 241.912 424.32 242.658 424.704 243.724C424.78 243.945 424.874 244.201 424.985 244.491C425.104 244.772 425.207 245.011 425.292 245.207C425.573 245.855 425.902 246.324 426.277 246.614C426.652 246.904 427.113 247.066 427.658 247.1V240.846H430.037V247.1C430.583 247.058 431.048 246.891 431.431 246.601C431.824 246.311 432.156 245.847 432.429 245.207C432.523 244.994 432.625 244.747 432.736 244.465C432.855 244.184 432.949 243.937 433.017 243.724C433.393 242.675 433.913 241.933 434.578 241.498C435.243 241.063 436.108 240.846 437.174 240.846H437.827V242.918H437.277C436.603 242.918 436.096 243.058 435.755 243.34C435.422 243.613 435.141 244.116 434.91 244.849C434.672 245.591 434.39 246.175 434.066 246.601C433.742 247.028 433.384 247.352 432.992 247.573L438.364 255.133ZM452.408 258.56H450.169V255.094H440.756V258.56H438.517V253.086H439.464C440.274 251.756 440.935 250.021 441.446 247.88C441.966 245.732 442.227 243.387 442.227 240.846H450.988V253.086H452.408V258.56ZM448.583 253.086V242.867H444.49C444.38 244.998 444.085 246.947 443.608 248.712C443.139 250.468 442.546 251.926 441.83 253.086H448.583ZM460.99 255.465C458.713 255.465 456.944 254.826 455.682 253.547C454.429 252.259 453.802 250.434 453.802 248.072C453.802 245.744 454.412 243.894 455.631 242.521C456.85 241.14 458.445 240.449 460.414 240.449C461.301 240.449 462.086 240.577 462.768 240.833C463.45 241.089 464.047 241.489 464.559 242.035C465.07 242.581 465.462 243.25 465.735 244.043C466.008 244.828 466.145 245.791 466.145 246.934V248.239H456.245C456.245 249.901 456.663 251.172 457.498 252.05C458.334 252.928 459.489 253.367 460.964 253.367C461.493 253.367 462.009 253.308 462.512 253.188C463.024 253.069 463.484 252.916 463.893 252.728C464.328 252.532 464.695 252.344 464.993 252.165C465.292 251.978 465.539 251.803 465.735 251.641H465.876V254.263C465.595 254.374 465.245 254.514 464.827 254.685C464.409 254.847 464.034 254.975 463.702 255.069C463.233 255.197 462.806 255.295 462.423 255.363C462.047 255.431 461.57 255.465 460.99 255.465ZM463.804 246.397C463.787 245.749 463.71 245.19 463.574 244.721C463.437 244.252 463.241 243.856 462.985 243.532C462.704 243.174 462.342 242.901 461.898 242.713C461.463 242.525 460.922 242.432 460.274 242.432C459.634 242.432 459.089 242.53 458.637 242.726C458.193 242.913 457.788 243.191 457.422 243.557C457.063 243.932 456.791 244.35 456.603 244.811C456.415 245.263 456.296 245.791 456.245 246.397H463.804ZM479.856 255.133H477.451V248.699H470.979V255.133H468.575V240.846H470.979V246.627H477.451V240.846H479.856V255.133ZM494.616 255.133H492.237V244.478L485.509 255.133H483.335V240.846H485.714V251.334L492.365 240.846H494.616V255.133ZM508.442 255.133H506.038V249.466H503.659L499.425 255.133H496.624L501.216 249.249C500.031 248.899 499.161 248.379 498.607 247.689C498.061 246.998 497.788 246.073 497.788 244.913C497.788 244.205 497.942 243.587 498.249 243.058C498.564 242.521 498.986 242.069 499.515 241.703C499.941 241.413 500.478 241.2 501.126 241.063C501.774 240.918 502.499 240.846 503.301 240.846H508.442V255.133ZM506.038 247.573V242.764H503.429C502.874 242.764 502.435 242.794 502.111 242.854C501.796 242.913 501.489 243.029 501.19 243.199C500.883 243.387 500.649 243.643 500.487 243.967C500.333 244.282 500.257 244.623 500.257 244.99C500.257 245.459 500.308 245.842 500.41 246.141C500.521 246.431 500.717 246.699 500.998 246.947C501.297 247.203 501.659 247.373 502.086 247.458C502.521 247.535 502.994 247.573 503.505 247.573H506.038ZM249.552 287.133H247.147V274.918H240.675V287.133H238.271V272.846H249.552V287.133ZM264.785 279.996C264.785 282.4 264.205 284.259 263.046 285.572C261.886 286.877 260.343 287.529 258.416 287.529C256.429 287.529 254.864 286.855 253.722 285.508C252.587 284.152 252.02 282.315 252.02 279.996C252.02 277.608 252.605 275.753 253.773 274.432C254.949 273.11 256.497 272.449 258.416 272.449C260.343 272.449 261.886 273.11 263.046 274.432C264.205 275.745 264.785 277.599 264.785 279.996ZM262.304 279.996C262.304 278.145 261.967 276.772 261.293 275.877C260.62 274.973 259.661 274.521 258.416 274.521C257.162 274.521 256.194 274.973 255.512 275.877C254.839 276.772 254.502 278.145 254.502 279.996C254.502 281.786 254.839 283.146 255.512 284.076C256.194 284.997 257.162 285.457 258.416 285.457C259.652 285.457 260.607 285.005 261.281 284.101C261.963 283.189 262.304 281.82 262.304 279.996ZM279.507 290.56H277.269V287.094H267.855V290.56H265.617V285.086H266.563C267.373 283.756 268.034 282.021 268.546 279.88C269.066 277.732 269.326 275.387 269.326 272.846H278.087V285.086H279.507V290.56ZM275.683 285.086V274.867H271.59C271.479 276.998 271.185 278.947 270.707 280.712C270.238 282.468 269.646 283.926 268.929 285.086H275.683ZM293.167 287.133H290.763V280.699H284.291V287.133H281.886V272.846H284.291V278.627H290.763V272.846H293.167V287.133ZM302.85 287.465C300.573 287.465 298.803 286.826 297.541 285.547C296.288 284.259 295.661 282.434 295.661 280.072C295.661 277.744 296.271 275.894 297.49 274.521C298.71 273.14 300.304 272.449 302.274 272.449C303.161 272.449 303.945 272.577 304.627 272.833C305.31 273.089 305.906 273.489 306.418 274.035C306.93 274.581 307.322 275.25 307.595 276.043C307.868 276.828 308.004 277.791 308.004 278.934V280.239H298.104C298.104 281.901 298.522 283.172 299.358 284.05C300.193 284.928 301.349 285.367 302.824 285.367C303.353 285.367 303.868 285.308 304.372 285.188C304.883 285.069 305.344 284.916 305.753 284.728C306.188 284.532 306.554 284.344 306.853 284.165C307.151 283.978 307.399 283.803 307.595 283.641H307.735V286.263C307.454 286.374 307.104 286.514 306.687 286.685C306.269 286.847 305.894 286.975 305.561 287.069C305.092 287.197 304.666 287.295 304.282 287.363C303.907 287.431 303.429 287.465 302.85 287.465ZM305.663 278.397C305.646 277.749 305.57 277.19 305.433 276.721C305.297 276.252 305.101 275.856 304.845 275.532C304.563 275.174 304.201 274.901 303.758 274.713C303.323 274.525 302.781 274.432 302.133 274.432C301.494 274.432 300.948 274.53 300.496 274.726C300.053 274.913 299.648 275.191 299.281 275.557C298.923 275.932 298.65 276.35 298.462 276.811C298.275 277.263 298.155 277.791 298.104 278.397H305.663ZM316.113 287.452C315.133 287.452 314.233 287.303 313.414 287.005C312.596 286.698 311.892 286.237 311.304 285.623C310.716 285.009 310.259 284.238 309.935 283.308C309.611 282.37 309.449 281.27 309.449 280.008C309.449 278.755 309.616 277.672 309.948 276.76C310.289 275.847 310.741 275.08 311.304 274.457C311.867 273.835 312.566 273.357 313.402 273.025C314.246 272.684 315.15 272.513 316.113 272.513C316.898 272.513 317.652 272.624 318.377 272.846C319.11 273.067 319.763 273.323 320.334 273.613V276.312H320.193C320.023 276.167 319.801 276.001 319.528 275.813C319.264 275.625 318.94 275.434 318.556 275.237C318.224 275.067 317.831 274.918 317.379 274.79C316.927 274.662 316.493 274.598 316.075 274.598C314.83 274.598 313.828 275.071 313.069 276.018C312.319 276.956 311.943 278.286 311.943 280.008C311.943 281.697 312.306 283.014 313.031 283.961C313.764 284.899 314.779 285.367 316.075 285.367C316.859 285.367 317.605 285.205 318.313 284.881C319.021 284.557 319.648 284.14 320.193 283.628H320.334V286.327C320.095 286.438 319.797 286.574 319.439 286.736C319.081 286.89 318.757 287.005 318.467 287.081C318.057 287.201 317.691 287.29 317.367 287.35C317.043 287.418 316.625 287.452 316.113 287.452ZM333.815 287.133H331.436V276.478L324.708 287.133H322.534V272.846H324.913V283.334L331.564 272.846H333.815V287.133ZM347.731 274.956H342.871V287.133H340.466V274.956H335.606V272.846H347.731V274.956ZM355.725 287.465C353.448 287.465 351.679 286.826 350.417 285.547C349.164 284.259 348.537 282.434 348.537 280.072C348.537 277.744 349.147 275.894 350.366 274.521C351.585 273.14 353.18 272.449 355.149 272.449C356.036 272.449 356.821 272.577 357.503 272.833C358.185 273.089 358.782 273.489 359.294 274.035C359.805 274.581 360.197 275.25 360.47 276.043C360.743 276.828 360.88 277.791 360.88 278.934V280.239H350.98C350.98 281.901 351.398 283.172 352.233 284.05C353.069 284.928 354.224 285.367 355.699 285.367C356.228 285.367 356.744 285.308 357.247 285.188C357.759 285.069 358.219 284.916 358.628 284.728C359.063 284.532 359.43 284.344 359.728 284.165C360.027 283.978 360.274 283.803 360.47 283.641H360.611V286.263C360.33 286.374 359.98 286.514 359.562 286.685C359.144 286.847 358.769 286.975 358.437 287.069C357.968 287.197 357.541 287.295 357.158 287.363C356.782 287.431 356.305 287.465 355.725 287.465ZM358.539 278.397C358.522 277.749 358.445 277.19 358.309 276.721C358.172 276.252 357.976 275.856 357.72 275.532C357.439 275.174 357.077 274.901 356.633 274.713C356.198 274.525 355.657 274.432 355.009 274.432C354.369 274.432 353.824 274.53 353.372 274.726C352.928 274.913 352.523 275.191 352.157 275.557C351.798 275.932 351.526 276.35 351.338 276.811C351.15 277.263 351.031 277.791 350.98 278.397H358.539ZM381.933 274.956H377.072V287.133H374.668V274.956H369.807V272.846H381.933V274.956ZM389.927 287.465C387.65 287.465 385.881 286.826 384.619 285.547C383.365 284.259 382.738 282.434 382.738 280.072C382.738 277.744 383.348 275.894 384.567 274.521C385.787 273.14 387.381 272.449 389.351 272.449C390.238 272.449 391.022 272.577 391.704 272.833C392.387 273.089 392.983 273.489 393.495 274.035C394.007 274.581 394.399 275.25 394.672 276.043C394.945 276.828 395.081 277.791 395.081 278.934V280.239H385.181C385.181 281.901 385.599 283.172 386.435 284.05C387.27 284.928 388.426 285.367 389.901 285.367C390.43 285.367 390.946 285.308 391.449 285.188C391.96 285.069 392.421 284.916 392.83 284.728C393.265 284.532 393.632 284.344 393.93 284.165C394.228 283.978 394.476 283.803 394.672 283.641H394.813V286.263C394.531 286.374 394.182 286.514 393.764 286.685C393.346 286.847 392.971 286.975 392.638 287.069C392.169 287.197 391.743 287.295 391.359 287.363C390.984 287.431 390.506 287.465 389.927 287.465ZM392.74 278.397C392.723 277.749 392.647 277.19 392.51 276.721C392.374 276.252 392.178 275.856 391.922 275.532C391.64 275.174 391.278 274.901 390.835 274.713C390.4 274.525 389.858 274.432 389.21 274.432C388.571 274.432 388.025 274.53 387.573 274.726C387.13 274.913 386.725 275.191 386.358 275.557C386 275.932 385.727 276.35 385.539 276.811C385.352 277.263 385.232 277.791 385.181 278.397H392.74ZM408.575 287.133H406.17V274.867H401.259C401.233 275.574 401.208 276.256 401.182 276.913C401.157 277.561 401.131 278.149 401.105 278.678C401.054 280.017 400.965 281.138 400.837 282.042C400.717 282.946 400.564 283.671 400.376 284.216C400.189 284.779 399.98 285.218 399.75 285.534C399.528 285.849 399.276 286.135 398.995 286.391C398.705 286.647 398.394 286.838 398.061 286.966C397.729 287.094 397.354 287.158 396.936 287.158C396.799 287.158 396.624 287.154 396.411 287.145C396.198 287.137 396.049 287.133 395.964 287.133V285.035H396.092C396.151 285.035 396.211 285.039 396.271 285.048C396.339 285.056 396.416 285.061 396.501 285.061C396.705 285.061 396.906 285.031 397.102 284.971C397.298 284.911 397.473 284.8 397.626 284.638C398.053 284.221 398.364 283.492 398.56 282.451C398.756 281.402 398.897 279.94 398.982 278.064C399.016 277.365 399.046 276.538 399.072 275.583C399.106 274.628 399.136 273.715 399.161 272.846H408.575V287.133ZM418.27 287.465C415.993 287.465 414.224 286.826 412.962 285.547C411.709 284.259 411.082 282.434 411.082 280.072C411.082 277.744 411.692 275.894 412.911 274.521C414.13 273.14 415.725 272.449 417.695 272.449C418.581 272.449 419.366 272.577 420.048 272.833C420.73 273.089 421.327 273.489 421.839 274.035C422.35 274.581 422.742 275.25 423.015 276.043C423.288 276.828 423.425 277.791 423.425 278.934V280.239H413.525C413.525 281.901 413.943 283.172 414.778 284.05C415.614 284.928 416.769 285.367 418.245 285.367C418.773 285.367 419.289 285.308 419.792 285.188C420.304 285.069 420.764 284.916 421.174 284.728C421.608 284.532 421.975 284.344 422.274 284.165C422.572 283.978 422.819 283.803 423.015 283.641H423.156V286.263C422.875 286.374 422.525 286.514 422.107 286.685C421.689 286.847 421.314 286.975 420.982 287.069C420.513 287.197 420.086 287.295 419.703 287.363C419.327 287.431 418.85 287.465 418.27 287.465ZM421.084 278.397C421.067 277.749 420.99 277.19 420.854 276.721C420.717 276.252 420.521 275.856 420.265 275.532C419.984 275.174 419.622 274.901 419.178 274.713C418.743 274.525 418.202 274.432 417.554 274.432C416.914 274.432 416.369 274.53 415.917 274.726C415.473 274.913 415.068 275.191 414.702 275.557C414.343 275.932 414.071 276.35 413.883 276.811C413.695 277.263 413.576 277.791 413.525 278.397H421.084ZM443.224 279.612C443.224 280.882 443.066 282.008 442.751 282.988C442.444 283.961 442.035 284.762 441.523 285.393C441.003 286.033 440.415 286.519 439.758 286.851C439.101 287.175 438.415 287.337 437.699 287.337C437.162 287.337 436.688 287.235 436.279 287.03C435.878 286.826 435.537 286.651 435.256 286.506V292.402H432.877V286.506C432.374 286.77 431.973 286.975 431.674 287.12C431.376 287.265 430.886 287.337 430.204 287.337C428.6 287.337 427.317 286.689 426.354 285.393C425.39 284.088 424.908 282.302 424.908 280.034C424.908 278.84 425.062 277.774 425.369 276.836C425.676 275.898 426.098 275.101 426.635 274.444C427.13 273.839 427.701 273.37 428.349 273.038C429.006 272.696 429.688 272.526 430.395 272.526C430.899 272.526 431.35 272.615 431.751 272.795C432.16 272.965 432.536 273.161 432.877 273.383V267.231H435.256V273.383C435.631 273.153 436.062 272.952 436.548 272.782C437.034 272.611 437.532 272.526 438.044 272.526C439.647 272.526 440.909 273.17 441.83 274.457C442.759 275.736 443.224 277.454 443.224 279.612ZM440.756 279.88C440.756 278.252 440.479 276.964 439.924 276.018C439.379 275.071 438.568 274.598 437.494 274.598C437.051 274.598 436.658 274.658 436.317 274.777C435.985 274.888 435.631 275.012 435.256 275.148V284.677C435.631 284.856 435.934 285.001 436.164 285.112C436.403 285.223 436.748 285.278 437.2 285.278C438.308 285.278 439.178 284.822 439.809 283.909C440.44 282.997 440.756 281.654 440.756 279.88ZM432.877 284.677V275.148C432.57 275.003 432.263 274.875 431.956 274.764C431.649 274.653 431.308 274.598 430.933 274.598C429.841 274.598 428.976 275.029 428.336 275.89C427.697 276.751 427.377 278.094 427.377 279.919C427.377 281.582 427.663 282.89 428.234 283.845C428.814 284.8 429.641 285.278 430.715 285.278C431.142 285.278 431.525 285.214 431.866 285.086C432.207 284.958 432.544 284.822 432.877 284.677ZM457.511 279.996C457.511 282.4 456.931 284.259 455.772 285.572C454.612 286.877 453.069 287.529 451.141 287.529C449.155 287.529 447.59 286.855 446.447 285.508C445.313 284.152 444.746 282.315 444.746 279.996C444.746 277.608 445.33 275.753 446.499 274.432C447.675 273.11 449.223 272.449 451.141 272.449C453.069 272.449 454.612 273.11 455.772 274.432C456.931 275.745 457.511 277.599 457.511 279.996ZM455.03 279.996C455.03 278.145 454.693 276.772 454.019 275.877C453.346 274.973 452.386 274.521 451.141 274.521C449.888 274.521 448.92 274.973 448.238 275.877C447.564 276.772 447.228 278.145 447.228 279.996C447.228 281.786 447.564 283.146 448.238 284.076C448.92 284.997 449.888 285.457 451.141 285.457C452.378 285.457 453.333 285.005 454.007 284.101C454.689 283.189 455.03 281.82 455.03 279.996ZM471.261 287.133H468.856V280.699H462.384V287.133H459.98V272.846H462.384V278.627H468.856V272.846H471.261V287.133ZM494.424 287.133H491.431L486.533 280.546H485.33V287.133H482.926V272.846H485.33V279.062C485.953 279.053 486.481 278.925 486.916 278.678C487.36 278.422 487.735 277.932 488.042 277.207C488.136 276.994 488.238 276.747 488.349 276.465C488.468 276.184 488.562 275.937 488.63 275.724C489.005 274.675 489.525 273.933 490.191 273.498C490.856 273.063 491.721 272.846 492.787 272.846H493.439V274.918H492.889C492.216 274.918 491.708 275.058 491.367 275.34C491.035 275.613 490.753 276.116 490.523 276.849C490.284 277.591 490.003 278.171 489.679 278.589C489.355 278.998 488.997 279.313 488.605 279.535L494.424 287.133ZM517.971 287.133H515.132L506.716 270.71V287.133H504.35V268.088H507.944L515.605 283.168V268.088H517.971V287.133ZM533.243 270.339H524.379V275.711H532.872V277.962H524.379V287.133H521.847V268.088H533.243V270.339ZM542.951 287.478C541.706 287.478 540.559 287.269 539.51 286.851C538.47 286.433 537.57 285.811 536.812 284.984C536.053 284.157 535.464 283.125 535.047 281.889C534.629 280.652 534.42 279.232 534.42 277.629C534.42 276.035 534.62 274.645 535.021 273.46C535.43 272.274 536.023 271.243 536.799 270.364C537.558 269.512 538.457 268.864 539.498 268.42C540.538 267.968 541.702 267.742 542.989 267.742C543.629 267.742 544.226 267.789 544.78 267.883C545.343 267.977 545.863 268.096 546.34 268.241C546.75 268.369 547.168 268.531 547.594 268.727C548.029 268.915 548.455 269.124 548.873 269.354V272.411H548.668C548.447 272.206 548.161 271.959 547.811 271.669C547.462 271.379 547.035 271.093 546.532 270.812C546.046 270.548 545.518 270.33 544.946 270.16C544.375 269.989 543.714 269.904 542.964 269.904C542.154 269.904 541.386 270.07 540.662 270.403C539.937 270.735 539.301 271.226 538.756 271.874C538.219 272.522 537.801 273.336 537.502 274.317C537.204 275.297 537.055 276.401 537.055 277.629C537.055 278.934 537.212 280.059 537.528 281.006C537.843 281.944 538.274 282.737 538.82 283.385C539.348 284.016 539.971 284.493 540.687 284.818C541.403 285.133 542.162 285.291 542.964 285.291C543.697 285.291 544.375 285.201 544.997 285.022C545.62 284.843 546.174 284.617 546.66 284.344C547.129 284.08 547.534 283.811 547.875 283.538C548.216 283.257 548.485 283.018 548.681 282.822H548.873V285.841C548.455 286.037 548.059 286.224 547.683 286.404C547.317 286.583 546.869 286.757 546.34 286.928C545.786 287.107 545.27 287.243 544.793 287.337C544.324 287.431 543.71 287.478 542.951 287.478ZM251.522 319.133H249.143V307.903L245.715 315.193H243.924L240.522 307.903V319.133H238.271V304.846H241.174L244.935 312.776L248.567 304.846H251.522V319.133ZM261.204 319.465C258.927 319.465 257.158 318.826 255.896 317.547C254.642 316.259 254.016 314.434 254.016 312.072C254.016 309.744 254.625 307.894 255.845 306.521C257.064 305.14 258.659 304.449 260.628 304.449C261.515 304.449 262.3 304.577 262.982 304.833C263.664 305.089 264.261 305.489 264.772 306.035C265.284 306.581 265.676 307.25 265.949 308.043C266.222 308.828 266.358 309.791 266.358 310.934V312.239H256.459C256.459 313.901 256.877 315.172 257.712 316.05C258.548 316.928 259.703 317.367 261.178 317.367C261.707 317.367 262.223 317.308 262.726 317.188C263.238 317.069 263.698 316.916 264.107 316.728C264.542 316.532 264.909 316.344 265.207 316.165C265.506 315.978 265.753 315.803 265.949 315.641H266.09V318.263C265.808 318.374 265.459 318.514 265.041 318.685C264.623 318.847 264.248 318.975 263.916 319.069C263.447 319.197 263.02 319.295 262.636 319.363C262.261 319.431 261.784 319.465 261.204 319.465ZM264.018 310.397C264.001 309.749 263.924 309.19 263.788 308.721C263.651 308.252 263.455 307.856 263.199 307.532C262.918 307.174 262.555 306.901 262.112 306.713C261.677 306.525 261.136 306.432 260.488 306.432C259.848 306.432 259.302 306.53 258.851 306.726C258.407 306.913 258.002 307.191 257.635 307.557C257.277 307.932 257.004 308.35 256.817 308.811C256.629 309.263 256.51 309.791 256.459 310.397H264.018ZM279.226 306.956H274.365V319.133H271.961V306.956H267.1V304.846H279.226V306.956ZM292.515 319.133H289.522L284.623 312.546H283.421V319.133H281.016V304.846H283.421V311.062C284.043 311.053 284.572 310.925 285.007 310.678C285.45 310.422 285.825 309.932 286.132 309.207C286.226 308.994 286.329 308.747 286.439 308.465C286.559 308.184 286.653 307.937 286.721 307.724C287.096 306.675 287.616 305.933 288.281 305.498C288.946 305.063 289.812 304.846 290.878 304.846H291.53V306.918H290.98C290.306 306.918 289.799 307.058 289.458 307.34C289.125 307.613 288.844 308.116 288.614 308.849C288.375 309.591 288.094 310.171 287.77 310.589C287.446 310.998 287.087 311.313 286.695 311.535L292.515 319.133ZM300.266 319.465C297.989 319.465 296.22 318.826 294.958 317.547C293.704 316.259 293.078 314.434 293.078 312.072C293.078 309.744 293.687 307.894 294.907 306.521C296.126 305.14 297.721 304.449 299.69 304.449C300.577 304.449 301.362 304.577 302.044 304.833C302.726 305.089 303.323 305.489 303.834 306.035C304.346 306.581 304.738 307.25 305.011 308.043C305.284 308.828 305.42 309.791 305.42 310.934V312.239H295.521C295.521 313.901 295.938 315.172 296.774 316.05C297.61 316.928 298.765 317.367 300.24 317.367C300.769 317.367 301.285 317.308 301.788 317.188C302.3 317.069 302.76 316.916 303.169 316.728C303.604 316.532 303.971 316.344 304.269 316.165C304.568 315.978 304.815 315.803 305.011 315.641H305.152V318.263C304.87 318.374 304.521 318.514 304.103 318.685C303.685 318.847 303.31 318.975 302.977 319.069C302.508 319.197 302.082 319.295 301.698 319.363C301.323 319.431 300.846 319.465 300.266 319.465ZM303.08 310.397C303.063 309.749 302.986 309.19 302.85 308.721C302.713 308.252 302.517 307.856 302.261 307.532C301.98 307.174 301.617 306.901 301.174 306.713C300.739 306.525 300.198 306.432 299.55 306.432C298.91 306.432 298.364 306.53 297.912 306.726C297.469 306.913 297.064 307.191 296.697 307.557C296.339 307.932 296.066 308.35 295.879 308.811C295.691 309.263 295.572 309.791 295.521 310.397H303.08ZM327.241 314.809C327.241 315.5 327.109 316.114 326.844 316.651C326.58 317.18 326.218 317.623 325.757 317.981C325.177 318.433 324.568 318.74 323.928 318.902C323.297 319.056 322.538 319.133 321.651 319.133H316.036V304.846H321.28C322.329 304.846 323.097 304.88 323.583 304.948C324.069 305.008 324.551 305.17 325.028 305.434C325.531 305.707 325.902 306.069 326.141 306.521C326.38 306.973 326.499 307.51 326.499 308.133C326.499 308.815 326.311 309.429 325.936 309.975C325.561 310.512 325.062 310.93 324.44 311.228L324.504 311.318C325.28 311.514 325.928 311.91 326.448 312.507C326.976 313.104 327.241 313.871 327.241 314.809ZM324.03 308.504C324.03 308.18 323.975 307.898 323.864 307.66C323.762 307.421 323.578 307.233 323.314 307.097C323.007 306.935 322.662 306.841 322.278 306.815C321.903 306.781 321.379 306.764 320.705 306.764H318.415V310.678H321.178C321.767 310.678 322.184 310.653 322.432 310.601C322.679 310.542 322.952 310.422 323.25 310.243C323.532 310.073 323.732 309.842 323.851 309.553C323.971 309.263 324.03 308.913 324.03 308.504ZM324.759 314.822C324.759 314.336 324.687 313.948 324.542 313.658C324.406 313.36 324.099 313.095 323.621 312.865C323.323 312.72 323.003 312.631 322.662 312.597C322.321 312.563 321.848 312.546 321.242 312.546H318.415V317.214H320.5C321.361 317.214 322.031 317.18 322.508 317.112C322.986 317.043 323.395 316.907 323.736 316.702C324.094 316.481 324.354 316.225 324.516 315.935C324.678 315.645 324.759 315.274 324.759 314.822ZM338.151 319.133V300.088H350.059V302.339H340.684V307.557H349.419V309.808H340.684V316.881H350.059V319.133H338.151ZM366.75 319.133H364.218V302.339H357.797C357.772 303.302 357.737 304.245 357.695 305.165C357.652 306.078 357.618 306.896 357.592 307.621C357.524 309.42 357.413 310.908 357.26 312.085C357.115 313.262 356.923 314.247 356.684 315.04C356.454 315.816 356.181 316.442 355.866 316.92C355.559 317.397 355.222 317.798 354.855 318.122C354.472 318.472 354.058 318.736 353.615 318.915C353.18 319.086 352.672 319.171 352.093 319.171C351.913 319.171 351.73 319.162 351.543 319.145C351.364 319.137 351.223 319.133 351.12 319.133V316.677H351.3C351.385 316.685 351.457 316.694 351.517 316.702C351.577 316.711 351.666 316.715 351.786 316.715C352.093 316.715 352.378 316.668 352.643 316.574C352.907 316.481 353.133 316.336 353.32 316.14C353.9 315.568 354.322 314.554 354.587 313.095C354.86 311.629 355.051 309.659 355.162 307.186C355.205 306.351 355.248 305.246 355.29 303.874C355.333 302.501 355.371 301.239 355.405 300.088H366.75V319.133ZM384.695 319.133H381.472L374.744 310.41H373.146V319.133H370.613V300.088H373.146V308.67C374.143 308.636 374.932 308.384 375.512 307.915C376.1 307.446 376.578 306.773 376.944 305.894C377.098 305.511 377.234 305.148 377.354 304.807C377.482 304.458 377.584 304.164 377.661 303.925C378.172 302.467 378.825 301.465 379.618 300.919C380.411 300.365 381.51 300.088 382.917 300.088H383.698V302.352H383.058C382.018 302.352 381.289 302.556 380.871 302.965C380.453 303.366 380.069 304.129 379.72 305.255C379.37 306.381 378.978 307.208 378.543 307.736C378.108 308.256 377.584 308.717 376.97 309.118L384.695 319.133Z" fill="#8C99B2"/>
</svg>
