<svg width="48" height="49" viewBox="0 0 48 49" fill="none" xmlns="http://www.w3.org/2000/svg">
<path d="M38.1008 23.4514V9.17885C38.1008 7.98947 37.2008 7.09744 36.0008 7.09744H29.1008H28.9508V4.12399C28.9508 3.82664 28.6508 3.5293 28.3508 3.5293H16.6508C16.3508 3.5293 16.0508 3.82664 16.0508 4.12399V10.2196C16.0508 10.5169 16.3508 10.8143 16.6508 10.8143H25.0508" stroke="currentColor" stroke-width="2" stroke-miterlimit="10" stroke-linecap="round" stroke-linejoin="round"/>
<path d="M10.3508 7.09766H9.15078C7.95078 7.09766 7.05078 7.98969 7.05078 9.17907V43.0764C7.05078 44.2658 7.95078 45.1578 9.15078 45.1578H21.4508" stroke="currentColor" stroke-width="2" stroke-miterlimit="10" stroke-linecap="round" stroke-linejoin="round"/>
<path d="M24 35.048L29.25 40.2516C29.55 40.5489 30.15 40.5489 30.45 40.2516L40.8 29.9932" stroke="currentColor" stroke-width="2" stroke-miterlimit="10" stroke-linecap="round" stroke-linejoin="round"/>
</svg>
