<svg width="50" height="50" viewBox="0 0 50 50" fill="none" xmlns="http://www.w3.org/2000/svg">
<path fill-rule="evenodd" clip-rule="evenodd" d="M25 0C38.75 0 50 11.25 50 25C50 38.75 38.75 50 25 50C11.25 50 0 38.75 0 25C0 11.25 11.25 0 25 0ZM9.79167 40.8333C11.25 40.2083 12.7083 39.375 14.375 38.5417C16.0417 37.9167 17.9167 37.2917 18.9583 36.0417C20 35 20.2083 31.875 19.375 30.4167C18.9583 29.7917 18.5417 29.1667 18.125 28.125C17.2917 25.625 18.3333 27.2917 16.875 25.8333C16.25 25.2083 16.0417 24.375 16.0417 23.3333C16.0417 21.4583 16.875 22.5 16.4583 20.625C15.2083 14.375 16.0417 8.33333 24.375 8.33333C27.5 8.33333 27.9167 9.79167 29.375 10.2083C33.75 11.6667 33.3333 16.4583 32.5 20.2083C31.875 22.7083 32.2917 21.25 32.7083 22.9167C32.9167 23.75 32.5 25.2083 32.0833 25.625C31.0417 27.0833 31.4583 25.4167 30.625 27.9167C30 31.4583 29.1667 29.375 29.1667 33.3333C29.1667 34.5833 29.375 35.4167 30 36.25C31.0417 37.5 35.2083 38.9583 37.0833 39.7917C37.9167 40.2083 38.75 40.8333 39.375 41.0417C53.3333 27.9167 44.375 3.125 24.375 3.125C2.5 2.91667 -3.125 32.7083 9.79167 40.8333Z" fill="currentColor"/>
</svg>
